<svg aria-roledescription="flowchart-v2" role="graphics-document document" viewBox="-8 -8 2168.71484375 581" style="max-width: 2168.71px; background-color: transparent;" xmlns:xlink="http://www.w3.org/1999/xlink" xmlns="http://www.w3.org/2000/svg" width="100%" id="my-svg"><style>#my-svg{font-family:"trebuchet ms",verdana,arial,sans-serif;font-size:16px;fill:#000000;}#my-svg .error-icon{fill:#552222;}#my-svg .error-text{fill:#552222;stroke:#552222;}#my-svg .edge-thickness-normal{stroke-width:2px;}#my-svg .edge-thickness-thick{stroke-width:3.5px;}#my-svg .edge-pattern-solid{stroke-dasharray:0;}#my-svg .edge-pattern-dashed{stroke-dasharray:3;}#my-svg .edge-pattern-dotted{stroke-dasharray:2;}#my-svg .marker{fill:#666;stroke:#666;}#my-svg .marker.cross{stroke:#666;}#my-svg svg{font-family:"trebuchet ms",verdana,arial,sans-serif;font-size:16px;}#my-svg .label{font-family:"trebuchet ms",verdana,arial,sans-serif;color:#000000;}#my-svg .cluster-label text{fill:#333;}#my-svg .cluster-label span,#my-svg p{color:#333;}#my-svg .label text,#my-svg span,#my-svg p{fill:#000000;color:#000000;}#my-svg .node rect,#my-svg .node circle,#my-svg .node ellipse,#my-svg .node polygon,#my-svg .node path{fill:#eee;stroke:#999;stroke-width:1px;}#my-svg .flowchart-label text{text-anchor:middle;}#my-svg .node .katex path{fill:#000;stroke:#000;stroke-width:1px;}#my-svg .node .label{text-align:center;}#my-svg .node.clickable{cursor:pointer;}#my-svg .arrowheadPath{fill:#333333;}#my-svg .edgePath .path{stroke:#666;stroke-width:2.0px;}#my-svg .flowchart-link{stroke:#666;fill:none;}#my-svg .edgeLabel{background-color:white;text-align:center;}#my-svg .edgeLabel rect{opacity:0.5;background-color:white;fill:white;}#my-svg .labelBkg{background-color:rgba(255, 255, 255, 0.5);}#my-svg .cluster rect{fill:hsl(0, 0%, 98.9215686275%);stroke:#707070;stroke-width:1px;}#my-svg .cluster text{fill:#333;}#my-svg .cluster span,#my-svg p{color:#333;}#my-svg div.mermaidTooltip{position:absolute;text-align:center;max-width:200px;padding:2px;font-family:"trebuchet ms",verdana,arial,sans-serif;font-size:12px;background:hsl(-160, 0%, 93.3333333333%);border:1px solid #707070;border-radius:2px;pointer-events:none;z-index:100;}#my-svg .flowchartTitleText{text-anchor:middle;font-size:18px;fill:#000000;}#my-svg :root{--mermaid-font-family:"trebuchet ms",verdana,arial,sans-serif;}</style><g><marker orient="auto" markerHeight="12" markerWidth="12" markerUnits="userSpaceOnUse" refY="5" refX="6" viewBox="0 0 10 10" class="marker flowchart" id="my-svg_flowchart-pointEnd"><path style="stroke-width: 1; stroke-dasharray: 1, 0;" class="arrowMarkerPath" d="M 0 0 L 10 5 L 0 10 z"/></marker><marker orient="auto" markerHeight="12" markerWidth="12" markerUnits="userSpaceOnUse" refY="5" refX="4.5" viewBox="0 0 10 10" class="marker flowchart" id="my-svg_flowchart-pointStart"><path style="stroke-width: 1; stroke-dasharray: 1, 0;" class="arrowMarkerPath" d="M 0 5 L 10 10 L 10 0 z"/></marker><marker orient="auto" markerHeight="11" markerWidth="11" markerUnits="userSpaceOnUse" refY="5" refX="11" viewBox="0 0 10 10" class="marker flowchart" id="my-svg_flowchart-circleEnd"><circle style="stroke-width: 1; stroke-dasharray: 1, 0;" class="arrowMarkerPath" r="5" cy="5" cx="5"/></marker><marker orient="auto" markerHeight="11" markerWidth="11" markerUnits="userSpaceOnUse" refY="5" refX="-1" viewBox="0 0 10 10" class="marker flowchart" id="my-svg_flowchart-circleStart"><circle style="stroke-width: 1; stroke-dasharray: 1, 0;" class="arrowMarkerPath" r="5" cy="5" cx="5"/></marker><marker orient="auto" markerHeight="11" markerWidth="11" markerUnits="userSpaceOnUse" refY="5.2" refX="12" viewBox="0 0 11 11" class="marker cross flowchart" id="my-svg_flowchart-crossEnd"><path style="stroke-width: 2; stroke-dasharray: 1, 0;" class="arrowMarkerPath" d="M 1,1 l 9,9 M 10,1 l -9,9"/></marker><marker orient="auto" markerHeight="11" markerWidth="11" markerUnits="userSpaceOnUse" refY="5.2" refX="-1" viewBox="0 0 11 11" class="marker cross flowchart" id="my-svg_flowchart-crossStart"><path style="stroke-width: 2; stroke-dasharray: 1, 0;" class="arrowMarkerPath" d="M 1,1 l 9,9 M 10,1 l -9,9"/></marker><g class="root"><g class="clusters"><g id="ServiceAdapterModules" class="cluster default flowchart-label"><rect height="103" width="524.203125" y="462" x="0" ry="0" rx="0" style=""/><g transform="translate(161.9921875, 462)" class="cluster-label"><foreignObject height="19" width="200.21875"><div style="display: inline-block; white-space: nowrap;" xmlns="http://www.w3.org/1999/xhtml"><span class="nodeLabel">Service adapter modules</span></div></foreignObject></g></g><g id="DataModules" class="cluster default flowchart-label"><rect height="103" width="1608.51171875" y="462" x="544.203125" ry="0" rx="0" style=""/><g transform="translate(1263.162109375, 462)" class="cluster-label"><foreignObject height="19" width="170.59375"><div style="display: inline-block; white-space: nowrap;" xmlns="http://www.w3.org/1999/xhtml"><span class="nodeLabel">Data access modules</span></div></foreignObject></g></g><g id="AppModules" class="cluster default flowchart-label"><rect height="412" width="2010.40625" y="0" x="92.8125" ry="0" rx="0" style=""/><g transform="translate(1016.625, 0)" class="cluster-label"><foreignObject height="19" width="162.78125"><div style="display: inline-block; white-space: nowrap;" xmlns="http://www.w3.org/1999/xhtml"><span class="nodeLabel">Application modules</span></div></foreignObject></g></g></g><g class="edgePaths"><path marker-end="url(#my-svg_flowchart-pointEnd)" style="fill:none;" class="edge-thickness-normal edge-pattern-solid flowchart-link LS-GATEWAY LE-CORE" id="L-GATEWAY-CORE-0" d="M361.998,181L352.338,185.167C342.678,189.333,323.359,197.667,363.845,208.174C404.332,218.682,504.625,231.364,554.771,237.705L604.918,244.045"/><path marker-end="url(#my-svg_flowchart-pointEnd)" style="fill:none;" class="edge-thickness-normal edge-pattern-solid flowchart-link LS-SCHED LE-CORE" id="L-SCHED-CORE-0" d="M1216.109,171.5L1211.454,177.25C1206.799,183,1197.489,194.5,1106.053,206.853C1014.617,219.206,841.054,232.412,754.273,239.015L667.492,245.618"/><path marker-end="url(#my-svg_flowchart-pointEnd)" style="stroke-width: 3.5px;fill:none;" class="edge-thickness-thick edge-pattern-solid flowchart-link LS-CORE LE-REC" id="L-CORE-REC-0" d="M662.207,251.049L731.107,259.124C800.007,267.199,937.806,283.35,1006.706,297.875C1075.605,312.4,1075.605,325.3,1075.605,331.75L1075.605,338.2"/><path marker-end="url(#my-svg_flowchart-pointEnd)" style="fill:none;" class="edge-thickness-normal edge-pattern-solid flowchart-link LS-GATEWAY LE-CHAN" id="L-GATEWAY-CHAN-0" d="M333.059,171.19L301.643,176.992C270.227,182.793,207.395,194.397,175.979,207.198C144.563,220,144.563,234,144.563,249.583C144.563,265.167,144.563,282.333,144.563,301.083C144.563,319.833,144.563,340.167,144.563,358.917C144.563,377.667,144.563,394.833,144.563,407.583C144.563,420.333,144.563,428.667,144.563,437C144.563,445.333,144.563,453.667,144.563,462.7C144.563,471.733,144.563,481.467,144.563,486.333L144.563,491.2"/><path marker-end="url(#my-svg_flowchart-pointEnd)" style="fill:none;" class="edge-thickness-normal edge-pattern-solid flowchart-link LS-CORE LE-LLM" id="L-CORE-LLM-0" d="M610.176,251.768L555.249,259.723C500.322,267.679,390.467,283.589,335.54,301.711C280.613,319.833,280.613,340.167,280.613,358.917C280.613,377.667,280.613,394.833,280.613,407.583C280.613,420.333,280.613,428.667,280.613,437C280.613,445.333,280.613,453.667,292.763,463.225C304.913,472.783,329.212,483.567,341.362,488.958L353.512,494.35"/><path marker-end="url(#my-svg_flowchart-pointEnd)" style="fill:none;" class="edge-thickness-normal edge-pattern-solid flowchart-link LS-DREAM LE-LLM" id="L-DREAM-LLM-0" d="M842.004,367.105L776.742,374.588C711.48,382.07,580.957,397.035,515.695,408.684C450.434,420.333,450.434,428.667,450.434,437C450.434,445.333,450.434,453.667,445.068,462.972C439.703,472.278,428.972,482.556,423.606,487.695L418.241,492.834"/><path marker-end="url(#my-svg_flowchart-pointEnd)" style="fill:none;" class="edge-thickness-normal edge-pattern-solid flowchart-link LS-GATEWAY LE-ID" id="L-GATEWAY-ID-0" d="M513.809,158.245L705.9,166.204C897.992,174.163,1282.176,190.082,1474.268,205.041C1666.359,220,1666.359,234,1666.359,249.583C1666.359,265.167,1666.359,282.333,1666.359,301.083C1666.359,319.833,1666.359,340.167,1666.359,358.917C1666.359,377.667,1666.359,394.833,1666.359,407.583C1666.359,420.333,1666.359,428.667,1666.359,437C1666.359,445.333,1666.359,453.667,1678.284,461.726C1690.208,469.785,1714.056,477.57,1725.98,481.463L1737.904,485.355"/><path marker-end="url(#my-svg_flowchart-pointEnd)" style="fill:none;" class="edge-thickness-normal edge-pattern-solid flowchart-link LS-TOOL LE-ID" id="L-TOOL-ID-0" d="M1499.082,370.832L1539.95,377.693C1580.818,384.555,1662.553,398.277,1703.421,409.305C1744.289,420.333,1744.289,428.667,1744.289,437C1744.289,445.333,1744.289,453.667,1750.006,461.521C1755.722,469.376,1767.156,476.751,1772.872,480.439L1778.589,484.127"/><path marker-end="url(#my-svg_flowchart-pointEnd)" style="fill:none;" class="edge-thickness-normal edge-pattern-solid flowchart-link LS-PERSONA LE-ID" id="L-PERSONA-ID-0" d="M1945.681,377.5L1930.545,383.25C1915.41,389,1885.138,400.5,1870.003,410.417C1854.867,420.333,1854.867,428.667,1854.867,437C1854.867,445.333,1854.867,453.667,1852.832,461.242C1850.798,468.816,1846.728,475.633,1844.693,479.041L1842.659,482.449"/><path marker-end="url(#my-svg_flowchart-pointEnd)" style="fill:none;" class="edge-thickness-normal edge-pattern-solid flowchart-link LS-CORE LE-REG" id="L-CORE-REG-0" d="M624.188,265L620.128,270.75C616.068,276.5,607.948,288,603.888,303.917C599.828,319.833,599.828,340.167,599.828,358.917C599.828,377.667,599.828,394.833,599.828,407.583C599.828,420.333,599.828,428.667,599.828,437C599.828,445.333,599.828,453.667,602.208,461.274C604.588,468.88,609.347,475.761,611.727,479.201L614.107,482.641"/><path marker-end="url(#my-svg_flowchart-pointEnd)" style="fill:none;" class="edge-thickness-normal edge-pattern-solid flowchart-link LS-CORE LE-MEM" id="L-CORE-MEM-0" d="M662.207,260.908L675.17,267.34C688.133,273.772,714.059,286.636,727.021,303.235C739.984,319.833,739.984,340.167,739.984,358.917C739.984,377.667,739.984,394.833,739.984,407.583C739.984,420.333,739.984,428.667,739.984,437C739.984,445.333,739.984,453.667,744.515,461.449C749.045,469.231,758.107,476.463,762.637,480.078L767.168,483.694"/><path marker-end="url(#my-svg_flowchart-pointEnd)" style="fill:none;" class="edge-thickness-normal edge-pattern-solid flowchart-link LS-GATEWAY LE-CHQ" id="L-GATEWAY-CHQ-0" d="M513.809,160.132L636.486,167.776C759.163,175.421,1004.517,190.711,1127.194,205.355C1249.871,220,1249.871,234,1249.871,249.583C1249.871,265.167,1249.871,282.333,1249.871,301.083C1249.871,319.833,1249.871,340.167,1249.871,358.917C1249.871,377.667,1249.871,394.833,1249.871,407.583C1249.871,420.333,1249.871,428.667,1249.871,437C1249.871,445.333,1249.871,453.667,1249.871,461.117C1249.871,468.567,1249.871,475.133,1249.871,478.417L1249.871,481.7"/><path marker-end="url(#my-svg_flowchart-pointEnd)" style="fill:none;" class="edge-thickness-normal edge-pattern-solid flowchart-link LS-REC LE-SIG" id="L-REC-SIG-0" d="M1056.442,377.5L1049.96,383.25C1043.478,389,1030.514,400.5,1024.033,410.417C1017.551,420.333,1017.551,428.667,1017.551,437C1017.551,445.333,1017.551,453.667,1018.191,461.133C1018.832,468.599,1020.114,475.198,1020.754,478.498L1021.395,481.797"/><path marker-end="url(#my-svg_flowchart-pointEnd)" style="fill:none;" class="edge-thickness-normal edge-pattern-solid flowchart-link LS-DREAM LE-SIG" id="L-DREAM-SIG-0" d="M957.223,374.968L981.799,381.14C1006.376,387.312,1055.53,399.656,1080.107,409.995C1104.684,420.333,1104.684,428.667,1104.684,437C1104.684,445.333,1104.684,453.667,1099.178,461.509C1093.672,469.352,1082.66,476.705,1077.154,480.381L1071.648,484.057"/><path marker-end="url(#my-svg_flowchart-pointEnd)" style="fill:none;" class="edge-thickness-normal edge-pattern-solid flowchart-link LS-DREAM LE-MEM" id="L-DREAM-MEM-0" d="M883.507,377.5L878.059,383.25C872.611,389,861.716,400.5,856.268,410.417C850.82,420.333,850.82,428.667,850.82,437C850.82,445.333,850.82,453.667,847.665,461.343C844.509,469.02,838.197,476.039,835.042,479.549L831.886,483.059"/><path marker-end="url(#my-svg_flowchart-pointEnd)" style="fill:none;" class="edge-thickness-normal edge-pattern-solid flowchart-link LS-DREAM LE-PROP" id="L-DREAM-PROP-0" d="M957.223,367.181L1021.637,374.651C1086.051,382.121,1214.879,397.06,1279.293,408.697C1343.707,420.333,1343.707,428.667,1343.707,437C1343.707,445.333,1343.707,453.667,1350.525,461.575C1357.342,469.483,1370.977,476.967,1377.795,480.708L1384.612,484.45"/><path marker-end="url(#my-svg_flowchart-pointEnd)" style="fill:none;" class="edge-thickness-normal edge-pattern-solid flowchart-link LS-DREAM LE-REG" id="L-DREAM-REG-0" d="M842.004,371.731L807.579,378.443C773.154,385.154,704.303,398.577,669.878,409.455C635.453,420.333,635.453,428.667,635.453,437C635.453,445.333,635.453,453.667,635.453,461.117C635.453,468.567,635.453,475.133,635.453,478.417L635.453,481.7"/><path marker-end="url(#my-svg_flowchart-pointEnd)" style="fill:none;" class="edge-thickness-normal edge-pattern-solid flowchart-link LS-TOOL LE-PROP" id="L-TOOL-PROP-0" d="M1437.543,387L1437.543,391.167C1437.543,395.333,1437.543,403.667,1437.543,412C1437.543,420.333,1437.543,428.667,1437.543,437C1437.543,445.333,1437.543,453.667,1437.543,461.117C1437.543,468.567,1437.543,475.133,1437.543,478.417L1437.543,481.7"/><path marker-end="url(#my-svg_flowchart-pointEnd)" style="fill:none;" class="edge-thickness-normal edge-pattern-solid flowchart-link LS-TOOL LE-REG" id="L-TOOL-REG-0" d="M1376.004,364.917L1266.667,372.764C1157.331,380.611,938.658,396.306,829.321,408.319C719.984,420.333,719.984,428.667,719.984,437C719.984,445.333,719.984,453.667,713.9,461.54C707.815,469.414,695.645,476.828,689.561,480.535L683.476,484.242"/><path marker-end="url(#my-svg_flowchart-pointEnd)" style="fill:none;" class="edge-thickness-normal edge-pattern-solid flowchart-link LS-PERSONA LE-PROP" id="L-PERSONA-PROP-0" d="M1912.641,369.22L1849.034,376.35C1785.427,383.48,1658.214,397.74,1594.607,409.037C1531,420.333,1531,428.667,1531,437C1531,445.333,1531,453.667,1524.212,461.574C1517.425,469.481,1503.85,476.961,1497.062,480.702L1490.274,484.442"/><path marker-end="url(#my-svg_flowchart-pointEnd)" style="fill:none;" class="edge-thickness-normal edge-pattern-solid flowchart-link LS-PERSONA LE-PA" id="L-PERSONA-PA-0" d="M2005.744,377.5L2010.924,383.25C2016.104,389,2026.464,400.5,2031.644,410.417C2036.824,420.333,2036.824,428.667,2036.824,437C2036.824,445.333,2036.824,453.667,2036.824,461.117C2036.824,468.567,2036.824,475.133,2036.824,478.417L2036.824,481.7"/><path marker-end="url(#my-svg_flowchart-pointEnd)" style="fill:none;" class="edge-thickness-normal edge-pattern-solid flowchart-link LS-BOOT LE-CFG" id="L-BOOT-CFG-0" d="M1760.445,373.621L1737.781,380.018C1715.116,386.414,1669.786,399.207,1647.122,409.77C1624.457,420.333,1624.457,428.667,1624.457,437C1624.457,445.333,1624.457,453.667,1624.457,461.117C1624.457,468.567,1624.457,475.133,1624.457,478.417L1624.457,481.7"/><path marker-end="url(#my-svg_flowchart-pointEnd)" style="fill:none;" class="edge-thickness-normal edge-pattern-solid flowchart-link LS-BOOT LE-ID" id="L-BOOT-ID-0" d="M1829.361,377.5L1836.945,383.25C1844.53,389,1859.698,400.5,1867.283,410.417C1874.867,420.333,1874.867,428.667,1874.867,437C1874.867,445.333,1874.867,453.667,1871.382,461.371C1867.896,469.075,1860.924,476.15,1857.439,479.687L1853.953,483.225"/><path marker-end="url(#my-svg_flowchart-pointEnd)" style="fill:none;stroke-width:2px;stroke-dasharray:3;" class="edge-thickness-normal edge-pattern-dotted flowchart-link LS-HEALTH LE-GATEWAY" id="L-HEALTH-GATEWAY-0" d="M565.961,59L542.206,64.75C518.452,70.5,470.943,82,447.188,92.617C423.434,103.233,423.434,112.967,423.434,117.833L423.434,122.7"/><path marker-end="url(#my-svg_flowchart-pointEnd)" style="fill:none;stroke-width:2px;stroke-dasharray:3;" class="edge-thickness-normal edge-pattern-dotted flowchart-link LS-HEALTH LE-SCHED" id="L-HEALTH-SCHED-0" d="M709.684,48.375L796.382,55.896C883.079,63.417,1056.475,78.458,1143.173,92.429C1229.871,106.4,1229.871,119.3,1229.871,125.75L1229.871,132.2"/></g><g class="edgeLabels"><g class="edgeLabel"><g transform="translate(0, 0)" class="label"><foreignObject height="0" width="0"><div style="display: inline-block; white-space: nowrap;" xmlns="http://www.w3.org/1999/xhtml"><span class="edgeLabel"></span></div></foreignObject></g></g><g class="edgeLabel"><g transform="translate(0, 0)" class="label"><foreignObject height="0" width="0"><div style="display: inline-block; white-space: nowrap;" xmlns="http://www.w3.org/1999/xhtml"><span class="edgeLabel"></span></div></foreignObject></g></g><g transform="translate(1075.60546875, 299.5)" class="edgeLabel"><g transform="translate(-24.4140625, -9.5)" class="label"><foreignObject height="19" width="48.828125"><div style="display: inline-block; white-space: nowrap;" xmlns="http://www.w3.org/1999/xhtml"><span class="edgeLabel">drives</span></div></foreignObject></g></g><g class="edgeLabel"><g transform="translate(0, 0)" class="label"><foreignObject height="0" width="0"><div style="display: inline-block; white-space: nowrap;" xmlns="http://www.w3.org/1999/xhtml"><span class="edgeLabel"></span></div></foreignObject></g></g><g class="edgeLabel"><g transform="translate(0, 0)" class="label"><foreignObject height="0" width="0"><div style="display: inline-block; white-space: nowrap;" xmlns="http://www.w3.org/1999/xhtml"><span class="edgeLabel"></span></div></foreignObject></g></g><g class="edgeLabel"><g transform="translate(0, 0)" class="label"><foreignObject height="0" width="0"><div style="display: inline-block; white-space: nowrap;" xmlns="http://www.w3.org/1999/xhtml"><span class="edgeLabel"></span></div></foreignObject></g></g><g class="edgeLabel"><g transform="translate(0, 0)" class="label"><foreignObject height="0" width="0"><div style="display: inline-block; white-space: nowrap;" xmlns="http://www.w3.org/1999/xhtml"><span class="edgeLabel"></span></div></foreignObject></g></g><g class="edgeLabel"><g transform="translate(0, 0)" class="label"><foreignObject height="0" width="0"><div style="display: inline-block; white-space: nowrap;" xmlns="http://www.w3.org/1999/xhtml"><span class="edgeLabel"></span></div></foreignObject></g></g><g class="edgeLabel"><g transform="translate(0, 0)" class="label"><foreignObject height="0" width="0"><div style="display: inline-block; white-space: nowrap;" xmlns="http://www.w3.org/1999/xhtml"><span class="edgeLabel"></span></div></foreignObject></g></g><g class="edgeLabel"><g transform="translate(0, 0)" class="label"><foreignObject height="0" width="0"><div style="display: inline-block; white-space: nowrap;" xmlns="http://www.w3.org/1999/xhtml"><span class="edgeLabel"></span></div></foreignObject></g></g><g class="edgeLabel"><g transform="translate(0, 0)" class="label"><foreignObject height="0" width="0"><div style="display: inline-block; white-space: nowrap;" xmlns="http://www.w3.org/1999/xhtml"><span class="edgeLabel"></span></div></foreignObject></g></g><g class="edgeLabel"><g transform="translate(0, 0)" class="label"><foreignObject height="0" width="0"><div style="display: inline-block; white-space: nowrap;" xmlns="http://www.w3.org/1999/xhtml"><span class="edgeLabel"></span></div></foreignObject></g></g><g class="edgeLabel"><g transform="translate(0, 0)" class="label"><foreignObject height="0" width="0"><div style="display: inline-block; white-space: nowrap;" xmlns="http://www.w3.org/1999/xhtml"><span class="edgeLabel"></span></div></foreignObject></g></g><g class="edgeLabel"><g transform="translate(0, 0)" class="label"><foreignObject height="0" width="0"><div style="display: inline-block; white-space: nowrap;" xmlns="http://www.w3.org/1999/xhtml"><span class="edgeLabel"></span></div></foreignObject></g></g><g class="edgeLabel"><g transform="translate(0, 0)" class="label"><foreignObject height="0" width="0"><div style="display: inline-block; white-space: nowrap;" xmlns="http://www.w3.org/1999/xhtml"><span class="edgeLabel"></span></div></foreignObject></g></g><g class="edgeLabel"><g transform="translate(0, 0)" class="label"><foreignObject height="0" width="0"><div style="display: inline-block; white-space: nowrap;" xmlns="http://www.w3.org/1999/xhtml"><span class="edgeLabel"></span></div></foreignObject></g></g><g class="edgeLabel"><g transform="translate(0, 0)" class="label"><foreignObject height="0" width="0"><div style="display: inline-block; white-space: nowrap;" xmlns="http://www.w3.org/1999/xhtml"><span class="edgeLabel"></span></div></foreignObject></g></g><g class="edgeLabel"><g transform="translate(0, 0)" class="label"><foreignObject height="0" width="0"><div style="display: inline-block; white-space: nowrap;" xmlns="http://www.w3.org/1999/xhtml"><span class="edgeLabel"></span></div></foreignObject></g></g><g class="edgeLabel"><g transform="translate(0, 0)" class="label"><foreignObject height="0" width="0"><div style="display: inline-block; white-space: nowrap;" xmlns="http://www.w3.org/1999/xhtml"><span class="edgeLabel"></span></div></foreignObject></g></g><g class="edgeLabel"><g transform="translate(0, 0)" class="label"><foreignObject height="0" width="0"><div style="display: inline-block; white-space: nowrap;" xmlns="http://www.w3.org/1999/xhtml"><span class="edgeLabel"></span></div></foreignObject></g></g><g class="edgeLabel"><g transform="translate(0, 0)" class="label"><foreignObject height="0" width="0"><div style="display: inline-block; white-space: nowrap;" xmlns="http://www.w3.org/1999/xhtml"><span class="edgeLabel"></span></div></foreignObject></g></g><g class="edgeLabel"><g transform="translate(0, 0)" class="label"><foreignObject height="0" width="0"><div style="display: inline-block; white-space: nowrap;" xmlns="http://www.w3.org/1999/xhtml"><span class="edgeLabel"></span></div></foreignObject></g></g><g class="edgeLabel"><g transform="translate(0, 0)" class="label"><foreignObject height="0" width="0"><div style="display: inline-block; white-space: nowrap;" xmlns="http://www.w3.org/1999/xhtml"><span class="edgeLabel"></span></div></foreignObject></g></g><g transform="translate(423.43359375, 93.5)" class="edgeLabel"><g transform="translate(-57.15625, -9.5)" class="label"><foreignObject height="19" width="114.3125"><div style="display: inline-block; white-space: nowrap;" xmlns="http://www.w3.org/1999/xhtml"><span class="edgeLabel">reads liveness</span></div></foreignObject></g></g><g transform="translate(1229.87109375, 93.5)" class="edgeLabel"><g transform="translate(-57.15625, -9.5)" class="label"><foreignObject height="19" width="114.3125"><div style="display: inline-block; white-space: nowrap;" xmlns="http://www.w3.org/1999/xhtml"><span class="edgeLabel">reads liveness</span></div></foreignObject></g></g></g><g class="nodes"><g transform="translate(144.5625, 513.5)" data-id="CHAN" data-node="true" id="flowchart-CHAN-17" class="node default default flowchart-label"><rect height="34" width="219.125" y="-17" x="-109.5625" ry="0" rx="0" style="" class="basic label-container"/><g transform="translate(-102.0625, -9.5)" style="" class="label"><rect/><foreignObject height="19" width="204.125"><div style="display: inline-block; white-space: nowrap;" xmlns="http://www.w3.org/1999/xhtml"><span class="nodeLabel">Channel service adapters</span></div></foreignObject></g></g><g transform="translate(396.6640625, 513.5)" data-id="LLM" data-node="true" id="flowchart-LLM-18" class="node default default flowchart-label"><rect height="34" width="185.078125" y="-17" x="-92.5390625" ry="0" rx="0" style="" class="basic label-container"/><g transform="translate(-85.0390625, -9.5)" style="" class="label"><rect/><foreignObject height="19" width="170.078125"><div style="display: inline-block; white-space: nowrap;" xmlns="http://www.w3.org/1999/xhtml"><span class="nodeLabel">LLM service adapters</span></div></foreignObject></g></g><g transform="translate(635.453125, 513.5)" data-id="REG" data-node="true" id="flowchart-REG-9" class="node default default flowchart-label"><rect height="53" width="112.5" y="-26.5" x="-56.25" ry="0" rx="0" style="" class="basic label-container"/><g transform="translate(-48.75, -19)" style="" class="label"><rect/><foreignObject height="38" width="97.5"><div style="display: inline-block; white-space: nowrap;" xmlns="http://www.w3.org/1999/xhtml"><span class="nodeLabel">Tool registry<br />shared</span></div></foreignObject></g></g><g transform="translate(804.515625, 513.5)" data-id="MEM" data-node="true" id="flowchart-MEM-10" class="node default default flowchart-label"><rect height="53" width="125.625" y="-26.5" x="-62.8125" ry="0" rx="0" style="" class="basic label-container"/><g transform="translate(-55.3125, -19)" style="" class="label"><rect/><foreignObject height="38" width="110.625"><div style="display: inline-block; white-space: nowrap;" xmlns="http://www.w3.org/1999/xhtml"><span class="nodeLabel">Memory store<br />per persona</span></div></foreignObject></g></g><g transform="translate(1027.55078125, 513.5)" data-id="SIG" data-node="true" id="flowchart-SIG-11" class="node default default flowchart-label"><rect height="53" width="111.3125" y="-26.5" x="-55.65625" ry="0" rx="0" style="" class="basic label-container"/><g transform="translate(-48.15625, -19)" style="" class="label"><rect/><foreignObject height="38" width="96.3125"><div style="display: inline-block; white-space: nowrap;" xmlns="http://www.w3.org/1999/xhtml"><span class="nodeLabel">Signal store<br />per persona</span></div></foreignObject></g></g><g transform="translate(1249.87109375, 513.5)" data-id="CHQ" data-node="true" id="flowchart-CHQ-12" class="node default default flowchart-label"><rect height="53" width="137.21875" y="-26.5" x="-68.609375" ry="0" rx="0" style="" class="basic label-container"/><g transform="translate(-61.109375, -19)" style="" class="label"><rect/><foreignObject height="38" width="122.21875"><div style="display: inline-block; white-space: nowrap;" xmlns="http://www.w3.org/1999/xhtml"><span class="nodeLabel">Channel queue<br />inbox + outbox</span></div></foreignObject></g></g><g transform="translate(1437.54296875, 513.5)" data-id="PROP" data-node="true" id="flowchart-PROP-13" class="node default default flowchart-label"><rect height="53" width="138.125" y="-26.5" x="-69.0625" ry="0" rx="0" style="" class="basic label-container"/><g transform="translate(-61.5625, -19)" style="" class="label"><rect/><foreignObject height="38" width="123.125"><div style="display: inline-block; white-space: nowrap;" xmlns="http://www.w3.org/1999/xhtml"><span class="nodeLabel">Proposal queue<br />cli + persona</span></div></foreignObject></g></g><g transform="translate(1624.45703125, 513.5)" data-id="CFG" data-node="true" id="flowchart-CFG-14" class="node default default flowchart-label"><rect height="53" width="135.703125" y="-26.5" x="-67.8515625" ry="0" rx="0" style="" class="basic label-container"/><g transform="translate(-60.3515625, -19)" style="" class="label"><rect/><foreignObject height="38" width="120.703125"><div style="display: inline-block; white-space: nowrap;" xmlns="http://www.w3.org/1999/xhtml"><span class="nodeLabel">Config<br />system-scoped</span></div></foreignObject></g></g><g transform="translate(1824.12109375, 513.5)" data-id="ID" data-node="true" id="flowchart-ID-15" class="node default default flowchart-label"><rect height="53" width="163.625" y="-26.5" x="-81.8125" ry="0" rx="0" style="" class="basic label-container"/><g transform="translate(-74.3125, -19)" style="" class="label"><rect/><foreignObject height="38" width="148.625"><div style="display: inline-block; white-space: nowrap;" xmlns="http://www.w3.org/1999/xhtml"><span class="nodeLabel">Identity &amp; persona<br />+ role lookup</span></div></foreignObject></g></g><g transform="translate(2036.82421875, 513.5)" data-id="PA" data-node="true" id="flowchart-PA-16" class="node default default flowchart-label"><rect height="53" width="161.78125" y="-26.5" x="-80.890625" ry="0" rx="0" style="" class="basic label-container"/><g transform="translate(-73.390625, -19)" style="" class="label"><rect/><foreignObject height="38" width="146.78125"><div style="display: inline-block; white-space: nowrap;" xmlns="http://www.w3.org/1999/xhtml"><span class="nodeLabel">Persona attributes<br />persona-core row</span></div></foreignObject></g></g><g transform="translate(1806.9375, 360.5)" data-id="BOOT" data-node="true" id="flowchart-BOOT-0" class="node default default flowchart-label"><rect height="34" width="92.984375" y="-17" x="-46.4921875" ry="0" rx="0" style="" class="basic label-container"/><g transform="translate(-38.9921875, -9.5)" style="" class="label"><rect/><foreignObject height="19" width="77.984375"><div style="display: inline-block; white-space: nowrap;" xmlns="http://www.w3.org/1999/xhtml"><span class="nodeLabel">Bootstrap</span></div></foreignObject></g></g><g transform="translate(423.43359375, 154.5)" data-id="GATEWAY" data-node="true" id="flowchart-GATEWAY-1" class="node default default flowchart-label"><rect height="53" width="180.75" y="-26.5" x="-90.375" ry="0" rx="0" style="" class="basic label-container"/><g transform="translate(-82.875, -19)" style="" class="label"><rect/><foreignObject height="38" width="165.75"><div style="display: inline-block; white-space: nowrap;" xmlns="http://www.w3.org/1999/xhtml"><span class="nodeLabel">Channel gateway<br />edge + worker loops</span></div></foreignObject></g></g><g transform="translate(1229.87109375, 154.5)" data-id="SCHED" data-node="true" id="flowchart-SCHED-2" class="node default default flowchart-label"><rect height="34" width="95.109375" y="-17" x="-47.5546875" ry="0" rx="0" style="" class="basic label-container"/><g transform="translate(-40.0546875, -9.5)" style="" class="label"><rect/><foreignObject height="19" width="80.109375"><div style="display: inline-block; white-space: nowrap;" xmlns="http://www.w3.org/1999/xhtml"><span class="nodeLabel">Scheduler</span></div></foreignObject></g></g><g transform="translate(636.19140625, 248)" data-id="CORE" data-node="true" id="flowchart-CORE-3" class="node default default flowchart-label"><rect height="34" width="52.03125" y="-17" x="-26.015625" ry="0" rx="0" style="" class="basic label-container"/><g transform="translate(-18.515625, -9.5)" style="" class="label"><rect/><foreignObject height="19" width="37.03125"><div style="display: inline-block; white-space: nowrap;" xmlns="http://www.w3.org/1999/xhtml"><span class="nodeLabel">Core</span></div></foreignObject></g></g><g transform="translate(1075.60546875, 360.5)" data-id="REC" data-node="true" id="flowchart-REC-4" class="node default default flowchart-label"><rect height="34" width="136.765625" y="-17" x="-68.3828125" ry="0" rx="0" style="" class="basic label-container"/><g transform="translate(-60.8828125, -9.5)" style="" class="label"><rect/><foreignObject height="19" width="121.765625"><div style="display: inline-block; white-space: nowrap;" xmlns="http://www.w3.org/1999/xhtml"><span class="nodeLabel">Signal recorder</span></div></foreignObject></g></g><g transform="translate(899.61328125, 360.5)" data-id="DREAM" data-node="true" id="flowchart-DREAM-5" class="node default default flowchart-label"><rect height="34" width="115.21875" y="-17" x="-57.609375" ry="0" rx="0" style="" class="basic label-container"/><g transform="translate(-50.109375, -9.5)" style="" class="label"><rect/><foreignObject height="19" width="100.21875"><div style="display: inline-block; white-space: nowrap;" xmlns="http://www.w3.org/1999/xhtml"><span class="nodeLabel">Dream cycle</span></div></foreignObject></g></g><g transform="translate(1437.54296875, 360.5)" data-id="TOOL" data-node="true" id="flowchart-TOOL-6" class="node default default flowchart-label"><rect height="53" width="123.078125" y="-26.5" x="-61.5390625" ry="0" rx="0" style="" class="basic label-container"/><g transform="translate(-54.0390625, -19)" style="" class="label"><rect/><foreignObject height="38" width="108.078125"><div style="display: inline-block; white-space: nowrap;" xmlns="http://www.w3.org/1999/xhtml"><span class="nodeLabel">Tool manager<br />+ path lint</span></div></foreignObject></g></g><g transform="translate(1990.4296875, 360.5)" data-id="PERSONA" data-node="true" id="flowchart-PERSONA-7" class="node default default flowchart-label"><rect height="34" width="155.578125" y="-17" x="-77.7890625" ry="0" rx="0" style="" class="basic label-container"/><g transform="translate(-70.2890625, -9.5)" style="" class="label"><rect/><foreignObject height="19" width="140.578125"><div style="display: inline-block; white-space: nowrap;" xmlns="http://www.w3.org/1999/xhtml"><span class="nodeLabel">Persona manager</span></div></foreignObject></g></g><g transform="translate(636.19140625, 42)" data-id="HEALTH" data-node="true" id="flowchart-HEALTH-8" class="node default default flowchart-label"><rect height="34" width="146.984375" y="-17" x="-73.4921875" ry="0" rx="0" style="" class="basic label-container"/><g transform="translate(-65.9921875, -9.5)" style="" class="label"><rect/><foreignObject height="19" width="131.984375"><div style="display: inline-block; white-space: nowrap;" xmlns="http://www.w3.org/1999/xhtml"><span class="nodeLabel">Health inspector</span></div></foreignObject></g></g></g></g></g></svg>