<svg aria-roledescription="stateDiagram" role="graphics-document document" viewBox="0 0 880.140625 534" style="max-width: 880.141px; background-color: transparent;" class="statediagram" xmlns:xlink="http://www.w3.org/1999/xlink" xmlns="http://www.w3.org/2000/svg" width="100%" id="my-svg"><style>#my-svg{font-family:"trebuchet ms",verdana,arial,sans-serif;font-size:16px;fill:#000000;}#my-svg .error-icon{fill:#552222;}#my-svg .error-text{fill:#552222;stroke:#552222;}#my-svg .edge-thickness-normal{stroke-width:2px;}#my-svg .edge-thickness-thick{stroke-width:3.5px;}#my-svg .edge-pattern-solid{stroke-dasharray:0;}#my-svg .edge-pattern-dashed{stroke-dasharray:3;}#my-svg .edge-pattern-dotted{stroke-dasharray:2;}#my-svg .marker{fill:#666;stroke:#666;}#my-svg .marker.cross{stroke:#666;}#my-svg svg{font-family:"trebuchet ms",verdana,arial,sans-serif;font-size:16px;}#my-svg defs #statediagram-barbEnd{fill:#000;stroke:#000;}#my-svg g.stateGroup text{fill:#999;stroke:none;font-size:10px;}#my-svg g.stateGroup text{fill:#000000;stroke:none;font-size:10px;}#my-svg g.stateGroup .state-title{font-weight:bolder;fill:#111111;}#my-svg g.stateGroup rect{fill:#eee;stroke:#999;}#my-svg g.stateGroup line{stroke:#666;stroke-width:1;}#my-svg .transition{stroke:#000;stroke-width:1;fill:none;}#my-svg .stateGroup .composit{fill:#ffffff;border-bottom:1px;}#my-svg .stateGroup .alt-composit{fill:#e0e0e0;border-bottom:1px;}#my-svg .state-note{stroke:#999;fill:#666;}#my-svg .state-note text{fill:#fff;stroke:none;font-size:10px;}#my-svg .stateLabel .box{stroke:none;stroke-width:0;fill:#eee;opacity:0.5;}#my-svg .edgeLabel .label rect{fill:#eee;opacity:0.5;}#my-svg .edgeLabel .label text{fill:#000000;}#my-svg .label div .edgeLabel{color:#000000;}#my-svg .stateLabel text{fill:#111111;font-size:10px;font-weight:bold;}#my-svg .node circle.state-start{fill:#222;stroke:#222;}#my-svg .node .fork-join{fill:#222;stroke:#222;}#my-svg .node circle.state-end{fill:hsl(0, 0%, 83.3333333333%);stroke:#ffffff;stroke-width:1.5;}#my-svg .end-state-inner{fill:#ffffff;stroke-width:1.5;}#my-svg .node rect{fill:#eee;stroke:#000;stroke-width:1px;}#my-svg .node polygon{fill:#eee;stroke:#000;stroke-width:1px;}#my-svg #statediagram-barbEnd{fill:#666;}#my-svg .statediagram-cluster rect{fill:#eee;stroke:#000;stroke-width:1px;}#my-svg .cluster-label,#my-svg .nodeLabel{color:#111111;}#my-svg .statediagram-cluster rect.outer{rx:5px;ry:5px;}#my-svg .statediagram-state .divider{stroke:#000;}#my-svg .statediagram-state .title-state{rx:5px;ry:5px;}#my-svg .statediagram-cluster.statediagram-cluster .inner{fill:#ffffff;}#my-svg .statediagram-cluster.statediagram-cluster-alt .inner{fill:#f4f4f4;}#my-svg .statediagram-cluster .inner{rx:0;ry:0;}#my-svg .statediagram-state rect.basic{rx:5px;ry:5px;}#my-svg .statediagram-state rect.divider{stroke-dasharray:10,10;fill:#f4f4f4;}#my-svg .note-edge{stroke-dasharray:5;}#my-svg .statediagram-note rect{fill:#666;stroke:#999;stroke-width:1px;rx:0;ry:0;}#my-svg .statediagram-note rect{fill:#666;stroke:#999;stroke-width:1px;rx:0;ry:0;}#my-svg .statediagram-note text{fill:#fff;}#my-svg .statediagram-note .nodeLabel{color:#fff;}#my-svg .statediagram .edgeLabel{color:red;}#my-svg #dependencyStart,#my-svg #dependencyEnd{fill:#666;stroke:#666;stroke-width:1;}#my-svg .statediagramTitleText{text-anchor:middle;font-size:18px;fill:#000000;}#my-svg :root{--mermaid-font-family:"trebuchet ms",verdana,arial,sans-serif;}</style><g><defs><marker orient="auto" markerUnits="strokeWidth" markerHeight="14" markerWidth="20" refY="7" refX="19" id="my-svg_statediagram-barbEnd"><path d="M 19,7 L9,13 L14,7 L9,1 Z"/></marker></defs><g class="root"><g class="clusters"><g id="approved----parent" class="note-cluster"><rect fill="none" height="250" width="343.203125" y="276" x="8"/></g><g id="rejected----parent" class="note-cluster"><rect fill="none" height="269" width="416.78125" y="91" x="390.76171875"/></g></g><g class="edgePaths"><path marker-end="url(#my-svg_statediagram-barbEnd)" style="fill:none" class="edge-thickness-normal transition" id="edge0" d="M189.602,22L189.602,27.75C189.602,33.5,189.602,45,189.602,56.5C189.602,68,189.602,79.5,189.602,94.167C189.602,108.833,189.602,126.667,189.602,135.583L189.602,144.5"/><path marker-end="url(#my-svg_statediagram-barbEnd)" style="fill:none" class="edge-thickness-normal transition" id="edge1" d="M189.602,178.5L189.602,189C189.602,199.5,189.602,220.5,189.602,236.75C189.602,253,189.602,264.5,189.602,274.417C189.602,284.333,189.602,292.667,189.602,296.833L189.602,301"/><path marker-end="url(#my-svg_statediagram-barbEnd)" style="fill:none" class="edge-thickness-normal transition" id="edge2" d="M229.625,172.987L269.412,184.406C309.199,195.824,388.773,218.662,428.561,235.831C468.348,253,468.348,264.5,480.218,274.724C492.089,284.947,515.829,293.895,527.7,298.369L539.57,302.842"/><path marker-end="url(#my-svg_statediagram-barbEnd)" style="fill:none" class="edge-thickness-normal transition" id="edge3" d="M220.283,335L227.803,339.167C235.323,343.333,250.363,351.667,257.882,361.583C265.402,371.5,265.402,383,307.888,400.196C350.373,417.393,435.344,440.286,477.83,451.732L520.315,463.179"/><path marker-end="url(#my-svg_statediagram-barbEnd)" style="fill:none" class="edge-thickness-normal transition" id="edge4" d="M539.57,330.97L524.568,335.809C509.565,340.647,479.56,350.323,464.557,360.912C449.555,371.5,449.555,383,461.611,399.715C473.668,416.43,497.782,438.36,509.839,449.325L521.896,460.29"/><path marker-end="url(#my-svg_statediagram-barbEnd)" style="fill:none" class="edge-thickness-normal transition" id="edge5" d="M620.008,330.97L635.01,335.809C650.013,340.647,680.018,350.323,695.021,360.912C710.023,371.5,710.023,383,680.621,400.08C651.218,417.161,592.412,439.822,563.009,451.152L533.606,462.483"/><path style="fill:none" class="edge-thickness-normal transition note-edge" d="M185.554,335L184.562,339.167C183.57,343.333,181.586,351.667,180.594,361.583C179.602,371.5,179.602,383,179.602,394.5C179.602,406,179.602,417.5,179.602,423.25L179.602,429"/><path style="fill:none" class="edge-thickness-normal transition note-edge" d="M632.504,207L632.504,212.75C632.504,218.5,632.504,230,632.504,241.5C632.504,253,632.504,264.5,627.274,274.417C622.045,284.333,611.585,292.667,606.356,296.833L601.126,301"/></g><g class="edgeLabels"><g transform="translate(189.6015625, 56.5)" class="edgeLabel"><g transform="translate(-94.8125, -9.5)" class="label"><rect height="19" width="189.625" ry="0" rx="0"/><foreignObject height="19" width="189.625"><div style="display: inline-block; white-space: nowrap;" xmlns="http://www.w3.org/1999/xhtml"><span class="edgeLabel">dream creates proposal</span></div></foreignObject></g></g><g transform="translate(189.6015625, 241.5)" class="edgeLabel"><g transform="translate(-67.59375, -9.5)" class="label"><rect height="19" width="135.1875" ry="0" rx="0"/><foreignObject height="19" width="135.1875"><div style="display: inline-block; white-space: nowrap;" xmlns="http://www.w3.org/1999/xhtml"><span class="edgeLabel">persona approve</span></div></foreignObject></g></g><g transform="translate(468.34765625, 241.5)" class="edgeLabel"><g transform="translate(-57.5859375, -9.5)" class="label"><rect height="19" width="115.171875" ry="0" rx="0"/><foreignObject height="19" width="115.171875"><div style="display: inline-block; white-space: nowrap;" xmlns="http://www.w3.org/1999/xhtml"><span class="edgeLabel">persona reject</span></div></foreignObject></g></g><g class="edgeLabel"><g transform="translate(0, 0)" class="label"><rect height="0" width="0" ry="0" rx="0"/><foreignObject height="0" width="0"><div style="display: inline-block; white-space: nowrap;" xmlns="http://www.w3.org/1999/xhtml"><span class="edgeLabel"></span></div></foreignObject></g></g><g transform="translate(449.5546875, 394.5)" class="edgeLabel"><g transform="translate(-78.3515625, -9.5)" class="label"><rect height="19" width="156.703125" ry="0" rx="0"/><foreignObject height="19" width="156.703125"><div style="display: inline-block; white-space: nowrap;" xmlns="http://www.w3.org/1999/xhtml"><span class="edgeLabel">rejection_count &lt; 3</span></div></foreignObject></g></g><g transform="translate(710.0234375, 394.5)" class="edgeLabel"><g transform="translate(-162.1171875, -9.5)" class="label"><rect height="19" width="324.234375" ry="0" rx="0"/><foreignObject height="19" width="324.234375"><div style="display: inline-block; white-space: nowrap;" xmlns="http://www.w3.org/1999/xhtml"><span class="edgeLabel">rejection_count = 3 (column blacklisted)</span></div></foreignObject></g></g><g class="edgeLabel"><g transform="translate(0, 0)" class="label"><rect height="0" width="0" ry="0" rx="0"/><foreignObject height="0" width="0"><div style="display: inline-block; white-space: nowrap;" xmlns="http://www.w3.org/1999/xhtml"><span class="edgeLabel"></span></div></foreignObject></g></g><g class="edgeLabel"><g transform="translate(0, 0)" class="label"><rect height="0" width="0" ry="0" rx="0"/><foreignObject height="0" width="0"><div style="display: inline-block; white-space: nowrap;" xmlns="http://www.w3.org/1999/xhtml"><span class="edgeLabel"></span></div></foreignObject></g></g></g><g class="nodes"><g transform="translate(189.6015625, 15)" data-id="root_start" data-node="true" id="state-root_start-0" class="node default"><circle height="14" width="14" r="7" class="state-start"/></g><g transform="translate(189.6015625, 161.5)" data-id="pending" data-node="true" id="state-pending-2" class="node  statediagram-state undefined"><rect height="34" width="80.046875" y="-17" x="-40.0234375" style="" class="basic label-container"/><g transform="translate(-32.5234375, -9.5)" style="" class="label"><rect/><foreignObject height="19" width="65.046875"><div style="display: inline-block; white-space: nowrap;" xmlns="http://www.w3.org/1999/xhtml"><span class="nodeLabel">pending</span></div></foreignObject></g></g><g transform="translate(189.6015625, 318)" data-id="approved" data-node="true" id="state-approved-6" class="node  statediagram-state undefined"><rect height="34" width="90.609375" y="-17" x="-45.3046875" style="" class="basic label-container"/><g transform="translate(-37.8046875, -9.5)" style="" class="label"><rect/><foreignObject height="19" width="75.609375"><div style="display: inline-block; white-space: nowrap;" xmlns="http://www.w3.org/1999/xhtml"><span class="nodeLabel">approved</span></div></foreignObject></g></g><g transform="translate(579.7890625, 318)" data-id="rejected" data-node="true" id="state-rejected-7" class="node  statediagram-state undefined"><rect height="34" width="80.4375" y="-17" x="-40.21875" style="" class="basic label-container"/><g transform="translate(-32.71875, -9.5)" style="" class="label"><rect/><foreignObject height="19" width="65.4375"><div style="display: inline-block; white-space: nowrap;" xmlns="http://www.w3.org/1999/xhtml"><span class="nodeLabel">rejected</span></div></foreignObject></g></g><g transform="translate(527.07421875, 465)" data-id="root_end" data-node="true" id="state-root_end-5" class="node default"><circle height="14" width="14" r="7" class="state-start"/><circle height="10" width="10" r="5" class="state-end"/></g><g transform="translate(179.6015625, 465)" data-id="approved----note-6" data-node="true" id="state-approved----note-6" class="node statediagram-note"><rect height="72" width="273.203125" y="-36" x="-136.6015625"/><g transform="translate(-129.1015625, -28.5)" style="" class="label"><rect/><foreignObject height="57" width="258.203125"><div style="display: inline-block; white-space: nowrap;" xmlns="http://www.w3.org/1999/xhtml"><span class="nodeLabel">Atomic transaction:<br />        persona row attribute-column<br />        update + status flip in one step.</span></div></foreignObject></g></g><g transform="translate(632.50390625, 161.5)" data-id="rejected----note-7" data-node="true" id="state-rejected----note-7" class="node statediagram-note"><rect height="91" width="280.078125" y="-45.5" x="-140.0390625"/><g transform="translate(-132.5390625, -38)" style="" class="label"><rect/><foreignObject height="76" width="265.078125"><div style="display: inline-block; white-space: nowrap;" xmlns="http://www.w3.org/1999/xhtml"><span class="nodeLabel">Blacklist is per<br />        (persona_slug, attribute_column)<br />        and enforced as a dream-side<br />        guard, not a state.</span></div></foreignObject></g></g></g></g></g></svg>