<svg id="my-svg" width="100%" xmlns="http://www.w3.org/2000/svg" xmlns:xlink="http://www.w3.org/1999/xlink" class="statediagram" style="max-width: 1153.58px; background-color: transparent;" viewBox="0 0 1153.578125 541" role="graphics-document document" aria-roledescription="stateDiagram"><style>#my-svg{font-family:"trebuchet ms",verdana,arial,sans-serif;font-size:16px;fill:#000000;}#my-svg .error-icon{fill:#552222;}#my-svg .error-text{fill:#552222;stroke:#552222;}#my-svg .edge-thickness-normal{stroke-width:2px;}#my-svg .edge-thickness-thick{stroke-width:3.5px;}#my-svg .edge-pattern-solid{stroke-dasharray:0;}#my-svg .edge-pattern-dashed{stroke-dasharray:3;}#my-svg .edge-pattern-dotted{stroke-dasharray:2;}#my-svg .marker{fill:#666;stroke:#666;}#my-svg .marker.cross{stroke:#666;}#my-svg svg{font-family:"trebuchet ms",verdana,arial,sans-serif;font-size:16px;}#my-svg defs #statediagram-barbEnd{fill:#000;stroke:#000;}#my-svg g.stateGroup text{fill:#999;stroke:none;font-size:10px;}#my-svg g.stateGroup text{fill:#000000;stroke:none;font-size:10px;}#my-svg g.stateGroup .state-title{font-weight:bolder;fill:#111111;}#my-svg g.stateGroup rect{fill:#eee;stroke:#999;}#my-svg g.stateGroup line{stroke:#666;stroke-width:1;}#my-svg .transition{stroke:#000;stroke-width:1;fill:none;}#my-svg .stateGroup .composit{fill:#ffffff;border-bottom:1px;}#my-svg .stateGroup .alt-composit{fill:#e0e0e0;border-bottom:1px;}#my-svg .state-note{stroke:#999;fill:#666;}#my-svg .state-note text{fill:#fff;stroke:none;font-size:10px;}#my-svg .stateLabel .box{stroke:none;stroke-width:0;fill:#eee;opacity:0.5;}#my-svg .edgeLabel .label rect{fill:#eee;opacity:0.5;}#my-svg .edgeLabel .label text{fill:#000000;}#my-svg .label div .edgeLabel{color:#000000;}#my-svg .stateLabel text{fill:#111111;font-size:10px;font-weight:bold;}#my-svg .node circle.state-start{fill:#222;stroke:#222;}#my-svg .node .fork-join{fill:#222;stroke:#222;}#my-svg .node circle.state-end{fill:hsl(0, 0%, 83.3333333333%);stroke:#ffffff;stroke-width:1.5;}#my-svg .end-state-inner{fill:#ffffff;stroke-width:1.5;}#my-svg .node rect{fill:#eee;stroke:#000;stroke-width:1px;}#my-svg .node polygon{fill:#eee;stroke:#000;stroke-width:1px;}#my-svg #statediagram-barbEnd{fill:#666;}#my-svg .statediagram-cluster rect{fill:#eee;stroke:#000;stroke-width:1px;}#my-svg .cluster-label,#my-svg .nodeLabel{color:#111111;}#my-svg .statediagram-cluster rect.outer{rx:5px;ry:5px;}#my-svg .statediagram-state .divider{stroke:#000;}#my-svg .statediagram-state .title-state{rx:5px;ry:5px;}#my-svg .statediagram-cluster.statediagram-cluster .inner{fill:#ffffff;}#my-svg .statediagram-cluster.statediagram-cluster-alt .inner{fill:#f4f4f4;}#my-svg .statediagram-cluster .inner{rx:0;ry:0;}#my-svg .statediagram-state rect.basic{rx:5px;ry:5px;}#my-svg .statediagram-state rect.divider{stroke-dasharray:10,10;fill:#f4f4f4;}#my-svg .note-edge{stroke-dasharray:5;}#my-svg .statediagram-note rect{fill:#666;stroke:#999;stroke-width:1px;rx:0;ry:0;}#my-svg .statediagram-note rect{fill:#666;stroke:#999;stroke-width:1px;rx:0;ry:0;}#my-svg .statediagram-note text{fill:#fff;}#my-svg .statediagram-note .nodeLabel{color:#fff;}#my-svg .statediagram .edgeLabel{color:red;}#my-svg #dependencyStart,#my-svg #dependencyEnd{fill:#666;stroke:#666;stroke-width:1;}#my-svg .statediagramTitleText{text-anchor:middle;font-size:18px;fill:#000000;}#my-svg :root{--mermaid-font-family:"trebuchet ms",verdana,arial,sans-serif;}</style><g><defs><marker id="my-svg_statediagram-barbEnd" refX="19" refY="7" markerWidth="20" markerHeight="14" markerUnits="strokeWidth" orient="auto"><path d="M 19,7 L9,13 L14,7 L9,1 Z"/></marker></defs><g class="root"><g class="clusters"><g class="note-cluster" id="approved----parent"><rect x="8" y="288" width="306.9375" height="245" fill="none"/></g><g class="note-cluster" id="rejected----parent"><rect x="440.66015625" y="90" width="564.0859375" height="281" fill="none"/></g></g><g class="edgePaths"><path d="M171.469,22L171.469,27.667C171.469,33.333,171.469,44.667,171.469,56C171.469,67.333,171.469,78.667,171.469,94.5C171.469,110.333,171.469,130.667,171.469,140.833L171.469,151" id="edge0" class="edge-thickness-normal transition" style="fill:none" marker-end="url(#my-svg_statediagram-barbEnd)"/><path d="M171.469,184L171.469,195.667C171.469,207.333,171.469,230.667,171.469,248C171.469,265.333,171.469,276.667,171.469,286.5C171.469,296.333,171.469,304.667,171.469,308.833L171.469,313" id="edge1" class="edge-thickness-normal transition" style="fill:none" marker-end="url(#my-svg_statediagram-barbEnd)"/><path d="M207.445,176.652L258.119,189.544C308.793,202.435,410.141,228.217,460.814,246.775C511.488,265.333,511.488,276.667,537.547,287.957C563.605,299.247,615.723,310.493,641.781,316.117L667.84,321.74" id="edge2" class="edge-thickness-normal transition" style="fill:none" marker-end="url(#my-svg_statediagram-barbEnd)"/><path d="M198.002,346L204.702,350.167C211.402,354.333,224.803,362.667,231.503,372.5C238.203,382.333,238.203,393.667,292.264,410.514C346.326,427.361,454.448,449.722,508.51,460.902L562.571,472.082" id="edge3" class="edge-thickness-normal transition" style="fill:none" marker-end="url(#my-svg_statediagram-barbEnd)"/><path d="M667.84,336.687L639.223,342.406C610.607,348.124,553.374,359.562,524.757,370.948C496.141,382.333,496.141,393.667,507.503,409.953C518.864,426.24,541.588,447.48,552.95,458.1L564.312,468.72" id="edge4" class="edge-thickness-normal transition" style="fill:none" marker-end="url(#my-svg_statediagram-barbEnd)"/><path d="M739.762,336.687L768.378,342.406C796.995,348.124,854.228,359.562,882.844,370.948C911.461,382.333,911.461,393.667,855.599,410.521C799.737,427.375,688.013,449.75,632.151,460.938L576.289,472.125" id="edge5" class="edge-thickness-normal transition" style="fill:none" marker-end="url(#my-svg_statediagram-barbEnd)"/><path d="M167.493,346L166.489,350.167C165.485,354.333,163.477,362.667,162.473,372.5C161.469,382.333,161.469,393.667,161.469,405C161.469,416.333,161.469,427.667,161.469,433.333L161.469,439" class="edge-thickness-normal transition note-edge" style="fill:none"/><path d="M838.176,220L838.176,225.667C838.176,231.333,838.176,242.667,838.176,254C838.176,265.333,838.176,276.667,821.773,287.399C805.371,298.131,772.566,308.263,756.164,313.328L739.762,318.394" class="edge-thickness-normal transition note-edge" style="fill:none"/></g><g class="edgeLabels"><g class="edgeLabel" transform="translate(171.46875, 56)"><g class="label" transform="translate(-84.046875, -9)"><rect rx="0" ry="0" width="168.09375" height="18"/><foreignObject width="168.09375" height="18"><div xmlns="http://www.w3.org/1999/xhtml" style="display: inline-block; white-space: nowrap;"><span class="edgeLabel">dream creates proposal</span></div></foreignObject></g></g><g class="edgeLabel" transform="translate(171.46875, 254)"><g class="label" transform="translate(-60.046875, -9)"><rect rx="0" ry="0" width="120.09375" height="18"/><foreignObject width="120.09375" height="18"><div xmlns="http://www.w3.org/1999/xhtml" style="display: inline-block; white-space: nowrap;"><span class="edgeLabel">persona approve</span></div></foreignObject></g></g><g class="edgeLabel" transform="translate(511.48828125, 254)"><g class="label" transform="translate(-50.6953125, -9)"><rect rx="0" ry="0" width="101.390625" height="18"/><foreignObject width="101.390625" height="18"><div xmlns="http://www.w3.org/1999/xhtml" style="display: inline-block; white-space: nowrap;"><span class="edgeLabel">persona reject</span></div></foreignObject></g></g><g class="edgeLabel"><g class="label" transform="translate(0, 0)"><rect rx="0" ry="0" width="0" height="0"/><foreignObject width="0" height="0"><div xmlns="http://www.w3.org/1999/xhtml" style="display: inline-block; white-space: nowrap;"><span class="edgeLabel"></span></div></foreignObject></g></g><g class="edgeLabel" transform="translate(496.140625, 405)"><g class="label" transform="translate(-161.203125, -9)"><rect rx="0" ry="0" width="322.40625" height="18"/><foreignObject width="322.40625" height="18"><div xmlns="http://www.w3.org/1999/xhtml" style="display: inline-block; white-space: nowrap;"><span class="edgeLabel">rejected count for (persona_slug, column) &lt; 3</span></div></foreignObject></g></g><g class="edgeLabel" transform="translate(911.4609375, 405)"><g class="label" transform="translate(-234.1171875, -9)"><rect rx="0" ry="0" width="468.234375" height="18"/><foreignObject width="468.234375" height="18"><div xmlns="http://www.w3.org/1999/xhtml" style="display: inline-block; white-space: nowrap;"><span class="edgeLabel">rejected count for (persona_slug, column) = 3 (column blacklisted)</span></div></foreignObject></g></g><g class="edgeLabel"><g class="label" transform="translate(0, 0)"><rect rx="0" ry="0" width="0" height="0"/><foreignObject width="0" height="0"><div xmlns="http://www.w3.org/1999/xhtml" style="display: inline-block; white-space: nowrap;"><span class="edgeLabel"></span></div></foreignObject></g></g><g class="edgeLabel"><g class="label" transform="translate(0, 0)"><rect rx="0" ry="0" width="0" height="0"/><foreignObject width="0" height="0"><div xmlns="http://www.w3.org/1999/xhtml" style="display: inline-block; white-space: nowrap;"><span class="edgeLabel"></span></div></foreignObject></g></g></g><g class="nodes"><g class="node default" id="state-root_start-0" data-node="true" data-id="root_start" transform="translate(171.46875, 15)"><circle class="state-start" r="7" width="14" height="14"/></g><g class="node  statediagram-state undefined" id="state-pending-2" data-node="true" data-id="pending" transform="translate(171.46875, 167.5)"><rect class="basic label-container" style="" x="-35.9765625" y="-16.5" width="71.953125" height="33"/><g class="label" style="" transform="translate(-28.4765625, -9)"><rect/><foreignObject width="56.953125" height="18"><div xmlns="http://www.w3.org/1999/xhtml" style="display: inline-block; white-space: nowrap;"><span class="nodeLabel">pending</span></div></foreignObject></g></g><g class="node  statediagram-state undefined" id="state-approved-6" data-node="true" data-id="approved" transform="translate(171.46875, 329.5)"><rect class="basic label-container" style="" x="-40.859375" y="-16.5" width="81.71875" height="33"/><g class="label" style="" transform="translate(-33.359375, -9)"><rect/><foreignObject width="66.71875" height="18"><div xmlns="http://www.w3.org/1999/xhtml" style="display: inline-block; white-space: nowrap;"><span class="nodeLabel">approved</span></div></foreignObject></g></g><g class="node  statediagram-state undefined" id="state-rejected-7" data-node="true" data-id="rejected" transform="translate(703.80078125, 329.5)"><rect class="basic label-container" style="" x="-35.9609375" y="-16.5" width="71.921875" height="33"/><g class="label" style="" transform="translate(-28.4609375, -9)"><rect/><foreignObject width="56.921875" height="18"><div xmlns="http://www.w3.org/1999/xhtml" style="display: inline-block; white-space: nowrap;"><span class="nodeLabel">rejected</span></div></foreignObject></g></g><g class="node default" id="state-root_end-5" data-node="true" data-id="root_end" transform="translate(569.42578125, 473.5)"><circle class="state-start" r="7" width="14" height="14"/><circle class="state-end" r="5" width="10" height="10"/></g><g class="node statediagram-note" id="state-approved----note-6" data-node="true" data-id="approved----note-6" transform="translate(161.46875, 473.5)"><rect x="-118.46875" y="-34.5" width="236.9375" height="69"/><g class="label" style="" transform="translate(-110.96875, -27)"><rect/><foreignObject width="221.9375" height="54"><div xmlns="http://www.w3.org/1999/xhtml" style="display: inline-block; white-space: nowrap;"><span class="nodeLabel">Atomic transaction:<br />        persona row attribute-column<br />        update + status flip in one step.</span></div></foreignObject></g></g><g class="node statediagram-note" id="state-rejected----note-7" data-node="true" data-id="rejected----note-7" transform="translate(838.17578125, 167.5)"><rect x="-131.5703125" y="-52.5" width="263.140625" height="105"/><g class="label" style="" transform="translate(-124.0703125, -45)"><rect/><foreignObject width="248.140625" height="90"><div xmlns="http://www.w3.org/1999/xhtml" style="display: inline-block; white-space: nowrap;"><span class="nodeLabel">Blacklist is per<br />        (persona_slug, attribute_column),<br />        enforced as a dream-side guard by<br />        counting terminal rejected rows.<br />        Derived, not stored.</span></div></foreignObject></g></g></g></g></g></svg>