<svg id="my-svg" width="100%" xmlns="http://www.w3.org/2000/svg" xmlns:xlink="http://www.w3.org/1999/xlink" class="statediagram" style="max-width: 2047.05px; background-color: transparent;" viewBox="0 0 2047.05078125 925" role="graphics-document document" aria-roledescription="stateDiagram"><style>#my-svg{font-family:"trebuchet ms",verdana,arial,sans-serif;font-size:16px;fill:#000000;}#my-svg .error-icon{fill:#552222;}#my-svg .error-text{fill:#552222;stroke:#552222;}#my-svg .edge-thickness-normal{stroke-width:2px;}#my-svg .edge-thickness-thick{stroke-width:3.5px;}#my-svg .edge-pattern-solid{stroke-dasharray:0;}#my-svg .edge-pattern-dashed{stroke-dasharray:3;}#my-svg .edge-pattern-dotted{stroke-dasharray:2;}#my-svg .marker{fill:#666;stroke:#666;}#my-svg .marker.cross{stroke:#666;}#my-svg svg{font-family:"trebuchet ms",verdana,arial,sans-serif;font-size:16px;}#my-svg defs #statediagram-barbEnd{fill:#000;stroke:#000;}#my-svg g.stateGroup text{fill:#999;stroke:none;font-size:10px;}#my-svg g.stateGroup text{fill:#000000;stroke:none;font-size:10px;}#my-svg g.stateGroup .state-title{font-weight:bolder;fill:#111111;}#my-svg g.stateGroup rect{fill:#eee;stroke:#999;}#my-svg g.stateGroup line{stroke:#666;stroke-width:1;}#my-svg .transition{stroke:#000;stroke-width:1;fill:none;}#my-svg .stateGroup .composit{fill:#ffffff;border-bottom:1px;}#my-svg .stateGroup .alt-composit{fill:#e0e0e0;border-bottom:1px;}#my-svg .state-note{stroke:#999;fill:#666;}#my-svg .state-note text{fill:#fff;stroke:none;font-size:10px;}#my-svg .stateLabel .box{stroke:none;stroke-width:0;fill:#eee;opacity:0.5;}#my-svg .edgeLabel .label rect{fill:#eee;opacity:0.5;}#my-svg .edgeLabel .label text{fill:#000000;}#my-svg .label div .edgeLabel{color:#000000;}#my-svg .stateLabel text{fill:#111111;font-size:10px;font-weight:bold;}#my-svg .node circle.state-start{fill:#222;stroke:#222;}#my-svg .node .fork-join{fill:#222;stroke:#222;}#my-svg .node circle.state-end{fill:hsl(0, 0%, 83.3333333333%);stroke:#ffffff;stroke-width:1.5;}#my-svg .end-state-inner{fill:#ffffff;stroke-width:1.5;}#my-svg .node rect{fill:#eee;stroke:#000;stroke-width:1px;}#my-svg .node polygon{fill:#eee;stroke:#000;stroke-width:1px;}#my-svg #statediagram-barbEnd{fill:#666;}#my-svg .statediagram-cluster rect{fill:#eee;stroke:#000;stroke-width:1px;}#my-svg .cluster-label,#my-svg .nodeLabel{color:#111111;}#my-svg .statediagram-cluster rect.outer{rx:5px;ry:5px;}#my-svg .statediagram-state .divider{stroke:#000;}#my-svg .statediagram-state .title-state{rx:5px;ry:5px;}#my-svg .statediagram-cluster.statediagram-cluster .inner{fill:#ffffff;}#my-svg .statediagram-cluster.statediagram-cluster-alt .inner{fill:#f4f4f4;}#my-svg .statediagram-cluster .inner{rx:0;ry:0;}#my-svg .statediagram-state rect.basic{rx:5px;ry:5px;}#my-svg .statediagram-state rect.divider{stroke-dasharray:10,10;fill:#f4f4f4;}#my-svg .note-edge{stroke-dasharray:5;}#my-svg .statediagram-note rect{fill:#666;stroke:#999;stroke-width:1px;rx:0;ry:0;}#my-svg .statediagram-note rect{fill:#666;stroke:#999;stroke-width:1px;rx:0;ry:0;}#my-svg .statediagram-note text{fill:#fff;}#my-svg .statediagram-note .nodeLabel{color:#fff;}#my-svg .statediagram .edgeLabel{color:red;}#my-svg #dependencyStart,#my-svg #dependencyEnd{fill:#666;stroke:#666;stroke-width:1;}#my-svg .statediagramTitleText{text-anchor:middle;font-size:18px;fill:#000000;}#my-svg :root{--mermaid-font-family:"trebuchet ms",verdana,arial,sans-serif;}</style><g><defs><marker id="my-svg_statediagram-barbEnd" refX="19" refY="7" markerWidth="20" markerHeight="14" markerUnits="strokeWidth" orient="auto"><path d="M 19,7 L9,13 L14,7 L9,1 Z"/></marker></defs><g class="root"><g class="clusters"><g class="note-cluster" id="active----parent"><rect x="508.0390625" y="115" width="1084.625" height="504" fill="none"/></g><g class="note-cluster" id="superseded----parent"><rect x="39.55078125" y="338" width="307.3125" height="497" fill="none"/></g><g class="note-cluster" id="deleted----parent"><rect x="1737.2734375" y="338" width="301.77734375" height="497" fill="none"/></g><g class="note-cluster" id="root_start----parent"><rect x="8" y="8" width="480.0390625" height="262" fill="none"/></g></g><g class="edgePaths"><path d="M283.938,47L283.938,52.667C283.938,58.333,283.938,69.667,283.938,81C283.938,92.333,283.938,103.667,415.42,121.801C546.902,139.936,809.867,164.871,941.35,177.339L1072.832,189.807" id="edge0" class="edge-thickness-normal transition" style="fill:none" marker-end="url(#my-svg_statediagram-barbEnd)"/><path d="M290.654,41.972L312.807,48.477C334.959,54.981,379.265,67.991,401.418,80.162C423.57,92.333,423.57,103.667,531.781,121.709C639.991,139.751,856.411,164.501,964.622,176.877L1072.832,189.252" id="edge1" class="edge-thickness-normal transition" style="fill:none" marker-end="url(#my-svg_statediagram-barbEnd)"/><path d="M1107.668,209L1111.635,219.167C1115.602,229.333,1123.535,249.667,1127.502,265.5C1131.469,281.333,1131.469,292.667,1131.469,304C1131.469,315.333,1131.469,326.667,1214.168,354.113C1296.867,381.559,1462.266,425.117,1544.965,446.896L1627.664,468.676" id="edge2" class="edge-thickness-normal transition" style="fill:none" marker-end="url(#my-svg_statediagram-barbEnd)"/><path d="M1129.629,201.99L1163.55,213.325C1197.471,224.66,1265.314,247.33,1299.235,264.332C1333.156,281.333,1333.156,292.667,1333.156,304C1333.156,315.333,1333.156,326.667,1382.241,353.117C1431.326,379.568,1529.495,421.136,1578.579,441.92L1627.664,462.704" id="edge3" class="edge-thickness-normal transition" style="fill:none" marker-end="url(#my-svg_statediagram-barbEnd)"/><path d="M1649.531,462L1630.195,441.333C1610.859,420.667,1572.187,379.333,1552.852,353C1533.516,326.667,1533.516,315.333,1533.516,304C1533.516,292.667,1533.516,281.333,1466.201,263.599C1398.887,245.864,1264.258,221.728,1196.943,209.659L1129.629,197.591" id="edge4" class="edge-thickness-normal transition" style="fill:none" marker-end="url(#my-svg_statediagram-barbEnd)"/><path d="M1072.832,197.858L1009.101,209.881C945.37,221.905,817.908,245.953,754.176,263.643C690.445,281.333,690.445,292.667,690.445,304C690.445,315.333,690.445,326.667,620.535,353.287C550.624,379.907,410.802,421.814,340.891,442.767L270.98,463.72" id="edge5" class="edge-thickness-normal transition" style="fill:none" marker-end="url(#my-svg_statediagram-barbEnd)"/><path d="M1129.629,190.913L1174.112,188.428C1218.595,185.942,1307.561,180.971,1363.165,178.486C1418.769,176,1441.01,176,1463.252,178.75C1485.493,181.5,1507.735,187,1507.735,192.5C1507.735,198,1485.493,203.5,1463.252,206.25C1441.01,209,1418.769,209,1363.165,206.514C1307.561,204.029,1218.595,199.058,1174.112,196.572L1129.629,194.087" id="edge6" class="edge-thickness-normal transition" style="fill:none" marker-end="url(#my-svg_statediagram-barbEnd)"/><path d="M1094.793,209L1090.826,219.167C1086.859,229.333,1078.926,249.667,1074.959,265.5C1070.992,281.333,1070.992,292.667,1070.992,304C1070.992,315.333,1070.992,326.667,1070.992,355.75C1070.992,384.833,1070.992,431.667,1070.992,478.5C1070.992,525.333,1070.992,572.167,1189.435,601.25C1307.878,630.333,1544.763,641.667,1667.13,660.5C1789.496,679.333,1797.344,705.667,1801.268,718.833L1805.192,732" id="edge7" class="edge-thickness-normal transition" style="fill:none" marker-end="url(#my-svg_statediagram-barbEnd)"/><path d="M1685.356,495L1710.892,515.667C1736.428,536.333,1787.499,577.667,1813.035,604C1838.57,630.333,1838.57,641.667,1834.646,660.5C1830.722,679.333,1822.875,705.667,1818.951,718.833L1815.027,732" id="edge8" class="edge-thickness-normal transition" style="fill:none" marker-end="url(#my-svg_statediagram-barbEnd)"/><path d="M227.348,495L234.463,515.667C241.577,536.333,255.806,577.667,262.921,604C270.035,630.333,270.035,641.667,521.089,662.901C772.143,684.136,1274.251,715.271,1525.305,730.839L1776.359,746.407" id="edge9" class="edge-thickness-normal transition" style="fill:none" marker-end="url(#my-svg_statediagram-barbEnd)"/><path d="M1810.109,765L1810.109,776.667C1810.109,788.333,1810.109,811.667,1810.109,829C1810.109,846.333,1810.109,857.667,1810.109,869C1810.109,880.333,1810.109,891.667,1810.109,897.333L1810.109,903" id="edge10" class="edge-thickness-normal transition" style="fill:none" marker-end="url(#my-svg_statediagram-barbEnd)"/><path d="M1072.832,202.137L1039.502,213.447C1006.172,224.758,939.512,247.379,906.182,264.356C872.852,281.333,872.852,292.667,872.852,304C872.852,315.333,872.852,326.667,872.852,336.5C872.852,346.333,872.852,354.667,872.852,358.833L872.852,363" class="edge-thickness-normal transition note-edge" style="fill:none"/><path d="M218.326,495L214.139,515.667C209.953,536.333,201.58,577.667,197.393,604C193.207,630.333,193.207,641.667,193.207,653C193.207,664.333,193.207,675.667,193.207,681.333L193.207,687" class="edge-thickness-normal transition note-edge" style="fill:none"/><path d="M1898.73,540L1898.73,553.167C1898.73,566.333,1898.73,592.667,1898.73,611.5C1898.73,630.333,1898.73,641.667,1886.512,660.5C1874.294,679.333,1849.857,705.667,1837.639,718.833L1825.421,732" class="edge-thickness-normal transition note-edge" style="fill:none"/><path d="M277.509,42.77L262.72,49.141C247.93,55.513,218.352,68.257,203.563,80.295C188.773,92.333,188.773,103.667,188.773,113.5C188.773,123.333,188.773,131.667,188.773,135.833L188.773,140" class="edge-thickness-normal transition note-edge" style="fill:none"/></g><g class="edgeLabels"><g class="edgeLabel" transform="translate(283.9375, 81)"><g class="label" transform="translate(-75.1640625, -9)"><rect rx="0" ry="0" width="150.328125" height="18"/><foreignObject width="150.328125" height="18"><div xmlns="http://www.w3.org/1999/xhtml" style="display: inline-block; white-space: nowrap;"><span class="edgeLabel">tool propose approve</span></div></foreignObject></g></g><g class="edgeLabel" transform="translate(423.5703125, 81)"><g class="label" transform="translate(-44.46875, -9)"><rect rx="0" ry="0" width="88.9375" height="18"/><foreignObject width="88.9375" height="18"><div xmlns="http://www.w3.org/1999/xhtml" style="display: inline-block; white-space: nowrap;"><span class="edgeLabel">tool promote</span></div></foreignObject></g></g><g class="edgeLabel" transform="translate(1131.46875, 304)"><g class="label" transform="translate(-40.4765625, -9)"><rect rx="0" ry="0" width="80.953125" height="18"/><foreignObject width="80.953125" height="18"><div xmlns="http://www.w3.org/1999/xhtml" style="display: inline-block; white-space: nowrap;"><span class="edgeLabel">tool disable</span></div></foreignObject></g></g><g class="edgeLabel" transform="translate(1333.15625, 304)"><g class="label" transform="translate(-141.2109375, -9)"><rect rx="0" ry="0" width="282.421875" height="18"/><foreignObject width="282.421875" height="18"><div xmlns="http://www.w3.org/1999/xhtml" style="display: inline-block; white-space: nowrap;"><span class="edgeLabel">tool propose approve [kind = deprecate]</span></div></foreignObject></g></g><g class="edgeLabel" transform="translate(1533.515625, 304)"><g class="label" transform="translate(-39.1484375, -9)"><rect rx="0" ry="0" width="78.296875" height="18"/><foreignObject width="78.296875" height="18"><div xmlns="http://www.w3.org/1999/xhtml" style="display: inline-block; white-space: nowrap;"><span class="edgeLabel">tool enable</span></div></foreignObject></g></g><g class="edgeLabel" transform="translate(690.4453125, 304)"><g class="label" transform="translate(-162.40625, -9)"><rect rx="0" ry="0" width="324.8125" height="18"/><foreignObject width="324.8125" height="18"><div xmlns="http://www.w3.org/1999/xhtml" style="display: inline-block; white-space: nowrap;"><span class="edgeLabel">tool propose approve [kind = replace | extend]</span></div></foreignObject></g></g><g class="edgeLabel" transform="translate(1529.9765625, 192.5)"><g class="label" transform="translate(-42.6875, -9)"><rect rx="0" ry="0" width="85.375" height="18"/><foreignObject width="85.375" height="18"><div xmlns="http://www.w3.org/1999/xhtml" style="display: inline-block; white-space: nowrap;"><span class="edgeLabel">tool rollback</span></div></foreignObject></g></g><g class="edgeLabel" transform="translate(1070.9921875, 478.5)"><g class="label" transform="translate(-36.921875, -9)"><rect rx="0" ry="0" width="73.84375" height="18"/><foreignObject width="73.84375" height="18"><div xmlns="http://www.w3.org/1999/xhtml" style="display: inline-block; white-space: nowrap;"><span class="edgeLabel">tool delete</span></div></foreignObject></g></g><g class="edgeLabel" transform="translate(1838.5703125, 653)"><g class="label" transform="translate(-36.921875, -9)"><rect rx="0" ry="0" width="73.84375" height="18"/><foreignObject width="73.84375" height="18"><div xmlns="http://www.w3.org/1999/xhtml" style="display: inline-block; white-space: nowrap;"><span class="edgeLabel">tool delete</span></div></foreignObject></g></g><g class="edgeLabel" transform="translate(270.03515625, 653)"><g class="label" transform="translate(-36.921875, -9)"><rect rx="0" ry="0" width="73.84375" height="18"/><foreignObject width="73.84375" height="18"><div xmlns="http://www.w3.org/1999/xhtml" style="display: inline-block; white-space: nowrap;"><span class="edgeLabel">tool delete</span></div></foreignObject></g></g><g class="edgeLabel" transform="translate(1810.109375, 869)"><g class="label" transform="translate(-35.5859375, -9)"><rect rx="0" ry="0" width="71.171875" height="18"/><foreignObject width="71.171875" height="18"><div xmlns="http://www.w3.org/1999/xhtml" style="display: inline-block; white-space: nowrap;"><span class="edgeLabel">tool purge</span></div></foreignObject></g></g><g class="edgeLabel"><g class="label" transform="translate(0, 0)"><rect rx="0" ry="0" width="0" height="0"/><foreignObject width="0" height="0"><div xmlns="http://www.w3.org/1999/xhtml" style="display: inline-block; white-space: nowrap;"><span class="edgeLabel"></span></div></foreignObject></g></g><g class="edgeLabel"><g class="label" transform="translate(0, 0)"><rect rx="0" ry="0" width="0" height="0"/><foreignObject width="0" height="0"><div xmlns="http://www.w3.org/1999/xhtml" style="display: inline-block; white-space: nowrap;"><span class="edgeLabel"></span></div></foreignObject></g></g><g class="edgeLabel"><g class="label" transform="translate(0, 0)"><rect rx="0" ry="0" width="0" height="0"/><foreignObject width="0" height="0"><div xmlns="http://www.w3.org/1999/xhtml" style="display: inline-block; white-space: nowrap;"><span class="edgeLabel"></span></div></foreignObject></g></g><g class="edgeLabel"><g class="label" transform="translate(0, 0)"><rect rx="0" ry="0" width="0" height="0"/><foreignObject width="0" height="0"><div xmlns="http://www.w3.org/1999/xhtml" style="display: inline-block; white-space: nowrap;"><span class="edgeLabel"></span></div></foreignObject></g></g></g><g class="nodes"><g class="node default" id="state-root_start-14" data-node="true" data-id="root_start" transform="translate(283.9375, 40)"><circle class="state-start" r="7" width="14" height="14"/></g><g class="node  statediagram-state undefined" id="state-active-11" data-node="true" data-id="active" transform="translate(1101.23046875, 192.5)"><rect class="basic label-container" style="" x="-28.3984375" y="-16.5" width="56.796875" height="33"/><g class="label" style="" transform="translate(-20.8984375, -9)"><rect/><foreignObject width="41.796875" height="18"><div xmlns="http://www.w3.org/1999/xhtml" style="display: inline-block; white-space: nowrap;"><span class="nodeLabel">active</span></div></foreignObject></g></g><g class="node  statediagram-state undefined" id="state-disabled-8" data-node="true" data-id="disabled" transform="translate(1664.96875, 478.5)"><rect class="basic label-container" style="" x="-37.3046875" y="-16.5" width="74.609375" height="33"/><g class="label" style="" transform="translate(-29.8046875, -9)"><rect/><foreignObject width="59.609375" height="18"><div xmlns="http://www.w3.org/1999/xhtml" style="display: inline-block; white-space: nowrap;"><span class="nodeLabel">disabled</span></div></foreignObject></g></g><g class="node  statediagram-state undefined" id="state-superseded-12" data-node="true" data-id="superseded" transform="translate(221.66796875, 478.5)"><rect class="basic label-container" style="" x="-49.3125" y="-16.5" width="98.625" height="33"/><g class="label" style="" transform="translate(-41.8125, -9)"><rect/><foreignObject width="83.625" height="18"><div xmlns="http://www.w3.org/1999/xhtml" style="display: inline-block; white-space: nowrap;"><span class="nodeLabel">superseded</span></div></foreignObject></g></g><g class="node  statediagram-state undefined" id="state-deleted-13" data-node="true" data-id="deleted" transform="translate(1810.109375, 748.5)"><rect class="basic label-container" style="" x="-33.75" y="-16.5" width="67.5" height="33"/><g class="label" style="" transform="translate(-26.25, -9)"><rect/><foreignObject width="52.5" height="18"><div xmlns="http://www.w3.org/1999/xhtml" style="display: inline-block; white-space: nowrap;"><span class="nodeLabel">deleted</span></div></foreignObject></g></g><g class="node default" id="state-root_end-10" data-node="true" data-id="root_end" transform="translate(1810.109375, 910)"><circle class="state-start" r="7" width="14" height="14"/><circle class="state-end" r="5" width="10" height="10"/></g><g class="node statediagram-note" id="state-active----note-11" data-node="true" data-id="active----note-11" transform="translate(872.8515625, 478.5)"><rect x="-126.21875" y="-115.5" width="252.4375" height="231"/><g class="label" style="" transform="translate(-118.71875, -108)"><rect/><foreignObject width="237.4375" height="216"><div xmlns="http://www.w3.org/1999/xhtml" style="display: inline-block; white-space: nowrap;"><span class="nodeLabel">Steady state. Use and success<br />        counters increment here.<br />        Dream may propose replacement<br />        (rising error rate) or<br />        deprecation (prolonged disuse);<br />        an approved deprecate proposal<br />        lands the tool in disabled, the<br />        same resting state tool disable<br />        reaches by admin action.<br />        tool rollback is a self-loop:<br />        active version swaps with<br />        a predecessor from .history/.</span></div></foreignObject></g></g><g class="node statediagram-note" id="state-superseded----note-12" data-node="true" data-id="superseded----note-12" transform="translate(193.20703125, 748.5)"><rect x="-118.65625" y="-61.5" width="237.3125" height="123"/><g class="label" style="" transform="translate(-111.15625, -54)"><rect/><foreignObject width="222.3125" height="108"><div xmlns="http://www.w3.org/1999/xhtml" style="display: inline-block; white-space: nowrap;"><span class="nodeLabel">Atomic swap on approve:<br />        predecessor moves to .history/,<br />        new binary installed via<br />        registry mutation protocol;<br />        lineage and reviewed tool.md<br />        updated. No memory write.</span></div></foreignObject></g></g><g class="node statediagram-note" id="state-deleted----note-13" data-node="true" data-id="deleted----note-13" transform="translate(1898.73046875, 478.5)"><rect x="-105.3203125" y="-61.5" width="210.640625" height="123"/><g class="label" style="" transform="translate(-97.8203125, -54)"><rect/><foreignObject width="195.640625" height="108"><div xmlns="http://www.w3.org/1999/xhtml" style="display: inline-block; white-space: nowrap;"><span class="nodeLabel">Row retained for lineage<br />        and tool history; binary<br />        archived to .history/.<br />        purge is the irreversible<br />        terminal step that removes<br />        the row and clears .history/.</span></div></foreignObject></g></g><g class="node statediagram-note" id="state-root_start----note-14" data-node="true" data-id="root_start----note-14" transform="translate(188.7734375, 192.5)"><rect x="-145.7734375" y="-52.5" width="291.546875" height="105"/><g class="label" style="" transform="translate(-138.2734375, -45)"><rect/><foreignObject width="276.546875" height="90"><div xmlns="http://www.w3.org/1999/xhtml" style="display: inline-block; white-space: nowrap;"><span class="nodeLabel">Filesystem leftovers may persist<br />        if a process crashes during install.<br />        The DB registry row and checksum are<br />        source of truth; tool sync removes or<br />        surfaces mismatches out of band.</span></div></foreignObject></g></g></g></g></g></svg>