<svg aria-roledescription="flowchart-v2" role="graphics-document document" viewBox="-8 -8 4679.16015625 1143.67333984375" style="max-width: 4679.16px; background-color: transparent;" xmlns:xlink="http://www.w3.org/1999/xlink" xmlns="http://www.w3.org/2000/svg" width="100%" id="my-svg"><style>#my-svg{font-family:"trebuchet ms",verdana,arial,sans-serif;font-size:16px;fill:#000000;}#my-svg .error-icon{fill:#552222;}#my-svg .error-text{fill:#552222;stroke:#552222;}#my-svg .edge-thickness-normal{stroke-width:2px;}#my-svg .edge-thickness-thick{stroke-width:3.5px;}#my-svg .edge-pattern-solid{stroke-dasharray:0;}#my-svg .edge-pattern-dashed{stroke-dasharray:3;}#my-svg .edge-pattern-dotted{stroke-dasharray:2;}#my-svg .marker{fill:#666;stroke:#666;}#my-svg .marker.cross{stroke:#666;}#my-svg svg{font-family:"trebuchet ms",verdana,arial,sans-serif;font-size:16px;}#my-svg .label{font-family:"trebuchet ms",verdana,arial,sans-serif;color:#000000;}#my-svg .cluster-label text{fill:#333;}#my-svg .cluster-label span,#my-svg p{color:#333;}#my-svg .label text,#my-svg span,#my-svg p{fill:#000000;color:#000000;}#my-svg .node rect,#my-svg .node circle,#my-svg .node ellipse,#my-svg .node polygon,#my-svg .node path{fill:#eee;stroke:#999;stroke-width:1px;}#my-svg .flowchart-label text{text-anchor:middle;}#my-svg .node .katex path{fill:#000;stroke:#000;stroke-width:1px;}#my-svg .node .label{text-align:center;}#my-svg .node.clickable{cursor:pointer;}#my-svg .arrowheadPath{fill:#333333;}#my-svg .edgePath .path{stroke:#666;stroke-width:2.0px;}#my-svg .flowchart-link{stroke:#666;fill:none;}#my-svg .edgeLabel{background-color:white;text-align:center;}#my-svg .edgeLabel rect{opacity:0.5;background-color:white;fill:white;}#my-svg .labelBkg{background-color:rgba(255, 255, 255, 0.5);}#my-svg .cluster rect{fill:hsl(0, 0%, 98.9215686275%);stroke:#707070;stroke-width:1px;}#my-svg .cluster text{fill:#333;}#my-svg .cluster span,#my-svg p{color:#333;}#my-svg div.mermaidTooltip{position:absolute;text-align:center;max-width:200px;padding:2px;font-family:"trebuchet ms",verdana,arial,sans-serif;font-size:12px;background:hsl(-160, 0%, 93.3333333333%);border:1px solid #707070;border-radius:2px;pointer-events:none;z-index:100;}#my-svg .flowchartTitleText{text-anchor:middle;font-size:18px;fill:#000000;}#my-svg :root{--mermaid-font-family:"trebuchet ms",verdana,arial,sans-serif;}</style><g><marker orient="auto" markerHeight="12" markerWidth="12" markerUnits="userSpaceOnUse" refY="5" refX="6" viewBox="0 0 10 10" class="marker flowchart" id="my-svg_flowchart-pointEnd"><path style="stroke-width: 1; stroke-dasharray: 1, 0;" class="arrowMarkerPath" d="M 0 0 L 10 5 L 0 10 z"/></marker><marker orient="auto" markerHeight="12" markerWidth="12" markerUnits="userSpaceOnUse" refY="5" refX="4.5" viewBox="0 0 10 10" class="marker flowchart" id="my-svg_flowchart-pointStart"><path style="stroke-width: 1; stroke-dasharray: 1, 0;" class="arrowMarkerPath" d="M 0 5 L 10 10 L 10 0 z"/></marker><marker orient="auto" markerHeight="11" markerWidth="11" markerUnits="userSpaceOnUse" refY="5" refX="11" viewBox="0 0 10 10" class="marker flowchart" id="my-svg_flowchart-circleEnd"><circle style="stroke-width: 1; stroke-dasharray: 1, 0;" class="arrowMarkerPath" r="5" cy="5" cx="5"/></marker><marker orient="auto" markerHeight="11" markerWidth="11" markerUnits="userSpaceOnUse" refY="5" refX="-1" viewBox="0 0 10 10" class="marker flowchart" id="my-svg_flowchart-circleStart"><circle style="stroke-width: 1; stroke-dasharray: 1, 0;" class="arrowMarkerPath" r="5" cy="5" cx="5"/></marker><marker orient="auto" markerHeight="11" markerWidth="11" markerUnits="userSpaceOnUse" refY="5.2" refX="12" viewBox="0 0 11 11" class="marker cross flowchart" id="my-svg_flowchart-crossEnd"><path style="stroke-width: 2; stroke-dasharray: 1, 0;" class="arrowMarkerPath" d="M 1,1 l 9,9 M 10,1 l -9,9"/></marker><marker orient="auto" markerHeight="11" markerWidth="11" markerUnits="userSpaceOnUse" refY="5.2" refX="-1" viewBox="0 0 11 11" class="marker cross flowchart" id="my-svg_flowchart-crossStart"><path style="stroke-width: 2; stroke-dasharray: 1, 0;" class="arrowMarkerPath" d="M 1,1 l 9,9 M 10,1 l -9,9"/></marker><g class="root"><g class="clusters"><g id="State" class="cluster default flowchart-label"><rect height="394.6733169555664" width="515.11328125" y="733" x="0" ry="0" rx="0" style=""/><g transform="translate(206.580078125, 733)" class="cluster-label"><foreignObject height="19" width="101.953125"><div style="display: inline-block; white-space: nowrap;" xmlns="http://www.w3.org/1999/xhtml"><span class="nodeLabel">Shared state</span></div></foreignObject></g></g><g id="LLMs" class="cluster default flowchart-label"><rect height="204" width="523.546875" y="733" x="535.11328125" ry="0" rx="0" style=""/><g transform="translate(796.88671875, 733)" class="cluster-label"><foreignObject height="0" width="0"><div style="display: inline-block; white-space: nowrap;" xmlns="http://www.w3.org/1999/xhtml"><span class="nodeLabel"></span></div></foreignObject></g></g><g id="Typhoon" class="cluster default flowchart-label"><rect height="815" width="2903.12109375" y="122" x="1078.66015625" ry="0" rx="0" style=""/><g transform="translate(2392.455078125, 122)" class="cluster-label"><foreignObject height="19" width="275.53125"><div style="display: inline-block; white-space: nowrap;" xmlns="http://www.w3.org/1999/xhtml"><span class="nodeLabel">Typhoon — one binary, two planes</span></div></foreignObject></g></g><g id="Channels" class="cluster default flowchart-label"><rect height="147" width="479.328125" y="122" x="279.58203125" ry="0" rx="0" style=""/><g transform="translate(519.24609375, 122)" class="cluster-label"><foreignObject height="0" width="0"><div style="display: inline-block; white-space: nowrap;" xmlns="http://www.w3.org/1999/xhtml"><span class="nodeLabel"></span></div></foreignObject></g></g><g id="UsePlane" class="cluster default flowchart-label"><rect height="574" width="1257.10546875" y="338" x="1098.66015625" ry="0" rx="0" style=""/><g transform="translate(1530.103515625, 338)" class="cluster-label"><foreignObject height="19" width="394.21875"><div style="display: inline-block; white-space: nowrap;" xmlns="http://www.w3.org/1999/xhtml"><span class="nodeLabel">Use plane — routes through core, records signals</span></div></foreignObject></g></g><g id="MgmtPlane" class="cluster default flowchart-label"><rect height="765" width="1300.296875" y="147" x="2661.484375" ry="0" rx="0" style=""/><g transform="translate(3118.59375, 147)" class="cluster-label"><foreignObject height="19" width="386.078125"><div style="display: inline-block; white-space: nowrap;" xmlns="http://www.w3.org/1999/xhtml"><span class="nodeLabel">Management plane — bypasses core, no signals</span></div></foreignObject></g></g><g id="ChannelPath" class="cluster default flowchart-label"><rect height="141" width="615.1796875" y="363" x="1118.66015625" ry="0" rx="0" style=""/><g transform="translate(1245.1796875, 363)" class="cluster-label"><foreignObject height="19" width="362.140625"><div style="display: inline-block; white-space: nowrap;" xmlns="http://www.w3.org/1999/xhtml"><span class="nodeLabel">typhoon gateway — edge loop + worker loop</span></div></foreignObject></g></g></g><g class="edgePaths"><path marker-end="url(#my-svg_flowchart-pointEnd)" marker-start="url(#my-svg_flowchart-pointStart)" style="fill:none;" class="edge-thickness-normal edge-pattern-solid flowchart-link LS-OP LE-TG" id="L-OP-TG-0" d="M3186.834,27.615L2713.526,37.596C2240.219,47.576,1293.604,67.538,820.296,83.269C346.988,99,346.988,110.5,346.988,120.417C346.988,130.333,346.988,138.667,349.921,149.361C352.854,160.055,358.719,173.11,361.652,179.638L364.585,186.166"/><path marker-end="url(#my-svg_flowchart-pointEnd)" marker-start="url(#my-svg_flowchart-pointStart)" style="fill:none;" class="edge-thickness-normal edge-pattern-solid flowchart-link LS-OP LE-EXT" id="L-OP-EXT-0" d="M3186.834,27.723L2756.372,37.686C2325.909,47.649,1464.984,67.574,1034.521,83.287C604.059,99,604.059,110.5,604.059,120.417C604.059,130.333,604.059,138.667,604.059,146.117C604.059,153.567,604.059,160.133,604.059,163.417L604.059,166.7"/><path marker-end="url(#my-svg_flowchart-pointEnd)" marker-start="url(#my-svg_flowchart-pointStart)" style="fill:none;" class="edge-thickness-normal edge-pattern-solid flowchart-link LS-USERS LE-TG" id="L-USERS-TG-0" d="M455.54,57.177L459.488,62.231C463.436,67.285,471.331,77.392,475.279,88.196C479.227,99,479.227,110.5,479.227,120.417C479.227,130.333,479.227,138.667,467.387,149.722C455.548,160.778,431.869,174.556,420.03,181.445L408.191,188.334"/><path marker-end="url(#my-svg_flowchart-pointEnd)" style="fill:none;" class="edge-thickness-normal edge-pattern-solid flowchart-link LS-OP LE-TOOLMGR" id="L-OP-TOOLMGR-0" d="M3275.877,43.5L3291.485,50.833C3307.092,58.167,3338.308,72.833,3353.916,85.917C3369.523,99,3369.523,110.5,3369.523,120.417C3369.523,130.333,3369.523,138.667,3369.523,153C3369.523,167.333,3369.523,187.667,3369.523,208C3369.523,228.333,3369.523,248.667,3369.523,264.583C3369.523,280.5,3369.523,292,3369.523,303.5C3369.523,315,3369.523,326.5,3369.523,336.417C3369.523,346.333,3369.523,354.667,3369.523,370.583C3369.523,386.5,3369.523,410,3369.523,433.5C3369.523,457,3369.523,480.5,3369.523,498C3369.523,515.5,3369.523,527,3369.523,546.083C3369.523,565.167,3369.523,591.833,3369.523,618.5C3369.523,645.167,3369.523,671.833,3369.523,690.917C3369.523,710,3369.523,721.5,3386.45,733.002C3403.377,744.504,3437.23,756.007,3454.157,761.759L3471.083,767.511"/><path marker-end="url(#my-svg_flowchart-pointEnd)" style="fill:none;" class="edge-thickness-normal edge-pattern-solid flowchart-link LS-OP LE-DREAM" id="L-OP-DREAM-0" d="M3192.133,42.337L3169.526,49.864C3146.919,57.391,3101.706,72.446,3079.099,85.723C3056.492,99,3056.492,110.5,3056.492,120.417C3056.492,130.333,3056.492,138.667,3056.492,153C3056.492,167.333,3056.492,187.667,3056.492,208C3056.492,228.333,3056.492,248.667,3056.492,264.583C3056.492,280.5,3056.492,292,3056.492,303.5C3056.492,315,3056.492,326.5,3056.492,336.417C3056.492,346.333,3056.492,354.667,3056.492,370.583C3056.492,386.5,3056.492,410,3056.492,433.5C3056.492,457,3056.492,480.5,3056.492,498C3056.492,515.5,3056.492,527,3061.245,537.854C3065.999,548.707,3075.505,558.914,3080.258,564.018L3085.012,569.122"/><path marker-end="url(#my-svg_flowchart-pointEnd)" style="fill:none;stroke-width:2px;stroke-dasharray:3;" class="edge-thickness-normal edge-pattern-dotted flowchart-link LS-OP LE-FORGE" id="L-OP-FORGE-0" d="M3287.258,30.1L3413.652,39.667C3540.046,49.233,3792.833,68.367,3919.227,83.683C4045.621,99,4045.621,110.5,4045.621,120.417C4045.621,130.333,4045.621,138.667,4083.384,150.304C4121.147,161.941,4196.673,176.882,4234.436,184.353L4272.199,191.824"/><path marker-end="url(#my-svg_flowchart-pointEnd)" style="fill:none;stroke-width:2px;stroke-dasharray:3;" class="edge-thickness-normal edge-pattern-dotted flowchart-link LS-FORGE LE-OP" id="L-FORGE-OP-0" d="M4379.841,172L4382.836,167.833C4385.83,163.667,4391.82,155.333,4394.814,147C4397.809,138.667,4397.809,130.333,4397.809,120.417C4397.809,110.5,4397.809,99,4213.599,83.547C4029.389,68.095,3660.97,48.689,3476.76,38.987L3292.55,29.284"/><path marker-end="url(#my-svg_flowchart-pointEnd)" style="fill:none;stroke-width:2px;stroke-dasharray:3;" class="edge-thickness-normal edge-pattern-dotted flowchart-link LS-FORGE LE-TOOLMGR" id="L-FORGE-TOOLMGR-0" d="M4277.398,213.623L4151.712,222.852C4026.026,232.082,3774.654,250.541,3648.967,265.52C3523.281,280.5,3523.281,292,3523.281,303.5C3523.281,315,3523.281,326.5,3523.281,336.417C3523.281,346.333,3523.281,354.667,3523.281,370.583C3523.281,386.5,3523.281,410,3523.281,433.5C3523.281,457,3523.281,480.5,3523.281,498C3523.281,515.5,3523.281,527,3523.281,546.083C3523.281,565.167,3523.281,591.833,3523.281,618.5C3523.281,645.167,3523.281,671.833,3523.281,690.917C3523.281,710,3523.281,721.5,3527.701,730.858C3532.12,740.216,3540.959,747.432,3545.378,751.04L3549.797,754.648"/><path marker-end="url(#my-svg_flowchart-pointEnd)" marker-start="url(#my-svg_flowchart-pointStart)" style="fill:none;" class="edge-thickness-normal edge-pattern-solid flowchart-link LS-TG LE-EDGE" id="L-TG-EDGE-0" d="M374.395,230.3L374.395,236.75C374.395,243.2,374.395,256.1,520.126,268.3C665.858,280.5,957.322,292,1103.053,303.5C1248.785,315,1248.785,326.5,1248.785,336.417C1248.785,346.333,1248.785,354.667,1248.785,363.7C1248.785,372.733,1248.785,382.467,1248.785,387.333L1248.785,392.2"/><path marker-end="url(#my-svg_flowchart-pointEnd)" marker-start="url(#my-svg_flowchart-pointStart)" style="fill:none;" class="edge-thickness-normal edge-pattern-solid flowchart-link LS-EDGE LE-CHQ" id="L-EDGE-CHQ-0" d="M1248.785,474.8L1248.785,479.667C1248.785,484.533,1248.785,494.267,1248.785,504.883C1248.785,515.5,1248.785,527,1248.785,546.083C1248.785,565.167,1248.785,591.833,1248.785,618.5C1248.785,645.167,1248.785,671.833,1248.785,690.917C1248.785,710,1248.785,721.5,1077.105,740.913C905.425,760.327,562.065,787.653,390.385,801.316L218.705,814.98"/><path marker-end="url(#my-svg_flowchart-pointEnd)" marker-start="url(#my-svg_flowchart-pointStart)" style="fill:none;" class="edge-thickness-normal edge-pattern-solid flowchart-link LS-WORKER LE-CHQ" id="L-WORKER-CHQ-0" d="M1454.607,472.059L1444.951,477.382C1435.294,482.706,1415.981,493.353,1406.325,504.426C1396.668,515.5,1396.668,527,1396.668,546.083C1396.668,565.167,1396.668,591.833,1396.668,618.5C1396.668,645.167,1396.668,671.833,1396.668,690.917C1396.668,710,1396.668,721.5,1200.341,741.059C1004.015,760.618,611.362,788.236,415.035,802.044L218.709,815.853"/><path marker-end="url(#my-svg_flowchart-pointEnd)" style="fill:none;stroke-width:2px;stroke-dasharray:3;" class="edge-thickness-normal edge-pattern-dotted flowchart-link LS-CHQ LE-DB" id="L-CHQ-DB-0" d="M124.211,871.051L124.211,877.876C124.211,884.701,124.211,898.35,124.211,909.342C124.211,920.333,124.211,928.667,124.211,938.583C124.211,948.5,124.211,960,128.157,971.03C132.102,982.06,139.994,992.621,143.939,997.901L147.885,1003.181"/><path marker-end="url(#my-svg_flowchart-pointEnd)" style="fill:none;" class="edge-thickness-normal edge-pattern-solid flowchart-link LS-WORKER LE-CORE" id="L-WORKER-CORE-0" d="M1584.024,469.5L1593.523,475.25C1603.023,481,1622.021,492.5,1631.52,504C1641.02,515.5,1641.02,527,1657.662,538.838C1674.304,550.675,1707.588,562.85,1724.231,568.938L1740.873,575.026"/><path marker-end="url(#my-svg_flowchart-pointEnd)" style="fill:none;" class="edge-thickness-normal edge-pattern-solid flowchart-link LS-EXT LE-CORE" id="L-EXT-CORE-0" d="M604.059,244L604.059,248.167C604.059,252.333,604.059,260.667,838.31,270.583C1072.561,280.5,1541.064,292,1775.315,303.5C2009.566,315,2009.566,326.5,2009.566,336.417C2009.566,346.333,2009.566,354.667,2009.566,370.583C2009.566,386.5,2009.566,410,2009.566,433.5C2009.566,457,2009.566,480.5,2009.566,498C2009.566,515.5,2009.566,527,1999.785,538.156C1990.003,549.312,1970.439,560.124,1960.657,565.53L1950.875,570.936"/><path marker-end="url(#my-svg_flowchart-pointEnd)" style="fill:none;" class="edge-thickness-normal edge-pattern-solid flowchart-link LS-CRON LE-CORE" id="L-CRON-CORE-0" d="M2390.766,468.139L2370.43,474.116C2350.094,480.093,2309.422,492.046,2289.086,503.773C2268.75,515.5,2268.75,527,2222.668,541.902C2176.585,556.803,2084.42,575.106,2038.338,584.258L1992.255,593.409"/><path marker-end="url(#my-svg_flowchart-pointEnd)" marker-start="url(#my-svg_flowchart-pointStart)" style="fill:none;" class="edge-thickness-normal edge-pattern-solid flowchart-link LS-CORE LE-OLLM" id="L-CORE-OLLM-0" d="M1733.742,648.448L1696.975,656.79C1660.207,665.132,1586.672,681.816,1549.904,695.908C1513.137,710,1513.137,721.5,1405.102,739.363C1297.067,757.226,1080.997,781.452,972.962,793.565L864.927,805.677"/><path marker-end="url(#my-svg_flowchart-pointEnd)" style="fill:none;" class="edge-thickness-normal edge-pattern-solid flowchart-link LS-CORE LE-FS" id="L-CORE-FS-0" d="M1984.982,647.708L2021.505,656.173C2058.027,664.638,2131.072,681.569,2167.595,695.785C2204.117,710,2204.117,721.5,2204.117,742.167C2204.117,762.833,2204.117,792.667,2204.117,822.5C2204.117,852.333,2204.117,882.167,2290.671,901.25C2377.224,920.333,2550.331,928.667,2244.276,938.583C1938.221,948.5,1153.005,960,764.21,972.78C375.415,985.559,383.042,999.619,386.855,1006.648L390.668,1013.678"/><path marker-end="url(#my-svg_flowchart-pointEnd)" style="fill:none;" class="edge-thickness-normal edge-pattern-solid flowchart-link LS-CORE LE-DB" id="L-CORE-DB-0" d="M1744.966,659.384L1725.739,665.904C1706.512,672.423,1668.059,685.461,1648.832,697.731C1629.605,710,1629.605,721.5,1629.605,742.167C1629.605,762.833,1629.605,792.667,1629.605,822.5C1629.605,852.333,1629.605,882.167,1629.605,901.25C1629.605,920.333,1629.605,928.667,1387.751,938.583C1145.896,948.5,662.186,960,420.931,970.629C179.676,981.258,180.876,991.016,181.476,995.895L182.076,1000.774"/><path marker-end="url(#my-svg_flowchart-pointEnd)" style="stroke-width: 3.5px;fill:none;" class="edge-thickness-thick edge-pattern-solid flowchart-link LS-CORE LE-REC" id="L-CORE-REC-0" d="M1875.794,664.5L1877.446,670.167C1879.099,675.833,1882.405,687.167,1884.058,698.583C1885.711,710,1885.711,721.5,1885.786,735.367C1885.861,749.233,1886.012,765.467,1886.087,773.584L1886.162,781.7"/><path marker-end="url(#my-svg_flowchart-pointEnd)" style="stroke-width: 3.5px;fill:none;" class="edge-thickness-thick edge-pattern-solid flowchart-link LS-REC LE-DB" id="L-REC-DB-0" d="M1886.211,859L1886.128,867.833C1886.044,876.667,1885.878,894.333,1885.794,907.333C1885.711,920.333,1885.711,928.667,1613.615,938.583C1341.518,948.5,797.326,960,521.283,971.03C245.241,982.06,237.35,992.621,233.404,997.901L229.459,1003.181"/><path marker-end="url(#my-svg_flowchart-pointEnd)" style="fill:none;stroke-width:2px;stroke-dasharray:3;" class="edge-thickness-normal edge-pattern-dotted flowchart-link LS-CRON LE-DREAM" id="L-CRON-DREAM-0" d="M2626.484,445.796L2719.466,455.497C2812.448,465.197,2998.411,484.599,3091.393,500.049C3184.375,515.5,3184.375,527,3181.029,537.765C3177.683,548.53,3170.991,558.561,3167.645,563.576L3164.299,568.591"/><path marker-end="url(#my-svg_flowchart-pointEnd)" marker-start="url(#my-svg_flowchart-pointStart)" style="fill:none;" class="edge-thickness-normal edge-pattern-solid flowchart-link LS-DREAM LE-DLLM" id="L-DREAM-DLLM-0" d="M2965.968,665.45L2946.606,670.959C2927.244,676.467,2888.521,687.483,2869.159,698.742C2849.797,710,2849.797,721.5,2546.323,741.673C2242.849,761.846,1635.902,790.693,1332.428,805.116L1028.954,819.539"/><path marker-end="url(#my-svg_flowchart-pointEnd)" style="fill:none;" class="edge-thickness-normal edge-pattern-solid flowchart-link LS-DREAM LE-TOOLMGR" id="L-DREAM-TOOLMGR-0" d="M3334.523,645.125L3402.525,654.021C3470.526,662.917,3606.529,680.708,3674.53,695.354C3742.531,710,3742.531,721.5,3738.112,730.858C3733.693,740.216,3724.854,747.432,3720.435,751.04L3716.015,754.648"/><path marker-end="url(#my-svg_flowchart-pointEnd)" marker-start="url(#my-svg_flowchart-pointStart)" style="fill:none;" class="edge-thickness-normal edge-pattern-solid flowchart-link LS-DREAM LE-DB" id="L-DREAM-DB-0" d="M3131,669.3L3131,674.167C3131,679.033,3131,688.767,3131,699.383C3131,710,3131,721.5,3131,742.167C3131,762.833,3131,792.667,3131,822.5C3131,852.333,3131,882.167,3056.406,901.25C2981.813,920.333,2832.625,928.667,2365.423,938.583C1898.221,948.5,1113.005,960,711.445,972.512C309.885,985.025,291.982,998.549,283.03,1005.311L274.078,1012.074"/><path marker-end="url(#my-svg_flowchart-pointEnd)" marker-start="url(#my-svg_flowchart-pointStart)" style="fill:none;" class="edge-thickness-normal edge-pattern-solid flowchart-link LS-TOOLMGR LE-DB" id="L-TOOLMGR-DB-0" d="M3470.947,861.197L3435.508,869.664C3400.07,878.131,3329.193,895.066,3201.275,907.699C3073.357,920.333,2888.397,928.667,2403.309,938.583C1918.221,948.5,1133.005,960,729.116,973.905C325.226,987.809,302.663,1004.119,291.382,1012.273L280.1,1020.428"/><path marker-end="url(#my-svg_flowchart-pointEnd)" marker-start="url(#my-svg_flowchart-pointStart)" style="fill:none;" class="edge-thickness-normal edge-pattern-solid flowchart-link LS-TOOLMGR LE-FS" id="L-TOOLMGR-FS-0" d="M3787.17,889.101L3796.011,892.917C3804.851,896.734,3822.531,904.367,3831.371,912.35C3840.211,920.333,3840.211,928.667,3275.829,938.583C2711.447,948.5,1582.682,960,1014.811,972.765C446.941,985.53,439.963,999.561,436.474,1006.576L432.986,1013.591"/><path marker-end="url(#my-svg_flowchart-pointEnd)" style="fill:none;stroke-width:2px;stroke-dasharray:3;" class="edge-thickness-normal edge-pattern-dotted flowchart-link LS-HEALTH LE-EDGE" id="L-HEALTH-EDGE-0" d="M2820.381,244L2814.091,248.167C2807.801,252.333,2795.221,260.667,2788.931,270.583C2782.641,280.5,2782.641,292,2782.641,303.5C2782.641,315,2782.641,326.5,2782.641,336.417C2782.641,346.333,2782.641,354.667,2543.735,369.814C2304.829,384.961,1827.017,406.923,1588.111,417.904L1349.205,428.884"/><path marker-end="url(#my-svg_flowchart-pointEnd)" style="fill:none;stroke-width:2px;stroke-dasharray:3;" class="edge-thickness-normal edge-pattern-dotted flowchart-link LS-HEALTH LE-CRON" id="L-HEALTH-CRON-0" d="M2921.345,244L2926.741,248.167C2932.136,252.333,2942.927,260.667,2948.323,270.583C2953.719,280.5,2953.719,292,2953.719,303.5C2953.719,315,2953.719,326.5,2953.719,336.417C2953.719,346.333,2953.719,354.667,2900.052,367.334C2846.386,380.001,2739.052,397.002,2685.386,405.502L2631.719,414.003"/></g><g class="edgeLabels"><g class="edgeLabel"><g transform="translate(0, 0)" class="label"><foreignObject height="0" width="0"><div style="display: inline-block; white-space: nowrap;" xmlns="http://www.w3.org/1999/xhtml"><span class="edgeLabel"></span></div></foreignObject></g></g><g class="edgeLabel"><g transform="translate(0, 0)" class="label"><foreignObject height="0" width="0"><div style="display: inline-block; white-space: nowrap;" xmlns="http://www.w3.org/1999/xhtml"><span class="edgeLabel"></span></div></foreignObject></g></g><g class="edgeLabel"><g transform="translate(0, 0)" class="label"><foreignObject height="0" width="0"><div style="display: inline-block; white-space: nowrap;" xmlns="http://www.w3.org/1999/xhtml"><span class="edgeLabel"></span></div></foreignObject></g></g><g class="edgeLabel"><g transform="translate(0, 0)" class="label"><foreignObject height="0" width="0"><div style="display: inline-block; white-space: nowrap;" xmlns="http://www.w3.org/1999/xhtml"><span class="edgeLabel"></span></div></foreignObject></g></g><g class="edgeLabel"><g transform="translate(0, 0)" class="label"><foreignObject height="0" width="0"><div style="display: inline-block; white-space: nowrap;" xmlns="http://www.w3.org/1999/xhtml"><span class="edgeLabel"></span></div></foreignObject></g></g><g transform="translate(4045.62109375, 87.5)" class="edgeLabel"><g transform="translate(-66.8359375, -9.5)" class="label"><foreignObject height="19" width="133.671875"><div style="display: inline-block; white-space: nowrap;" xmlns="http://www.w3.org/1999/xhtml"><span class="edgeLabel">drives externally</span></div></foreignObject></g></g><g transform="translate(4397.80859375, 87.5)" class="edgeLabel"><g transform="translate(-265.3515625, -9.5)" class="label"><foreignObject height="19" width="530.703125"><div style="display: inline-block; white-space: nowrap;" xmlns="http://www.w3.org/1999/xhtml"><span class="edgeLabel">requirements + tool.md + source + tests + correctness argument</span></div></foreignObject></g></g><g transform="translate(3523.28125, 538.5)" class="edgeLabel"><g transform="translate(-133.7578125, -9.5)" class="label"><foreignObject height="19" width="267.515625"><div style="display: inline-block; white-space: nowrap;" xmlns="http://www.w3.org/1999/xhtml"><span class="edgeLabel">via operator: tool propose submit</span></div></foreignObject></g></g><g class="edgeLabel"><g transform="translate(0, 0)" class="label"><foreignObject height="0" width="0"><div style="display: inline-block; white-space: nowrap;" xmlns="http://www.w3.org/1999/xhtml"><span class="edgeLabel"></span></div></foreignObject></g></g><g class="edgeLabel"><g transform="translate(0, 0)" class="label"><foreignObject height="0" width="0"><div style="display: inline-block; white-space: nowrap;" xmlns="http://www.w3.org/1999/xhtml"><span class="edgeLabel"></span></div></foreignObject></g></g><g class="edgeLabel"><g transform="translate(0, 0)" class="label"><foreignObject height="0" width="0"><div style="display: inline-block; white-space: nowrap;" xmlns="http://www.w3.org/1999/xhtml"><span class="edgeLabel"></span></div></foreignObject></g></g><g transform="translate(124.2109375, 971.5)" class="edgeLabel"><g transform="translate(-34.265625, -9.5)" class="label"><foreignObject height="19" width="68.53125"><div style="display: inline-block; white-space: nowrap;" xmlns="http://www.w3.org/1999/xhtml"><span class="edgeLabel">tables in</span></div></foreignObject></g></g><g class="edgeLabel"><g transform="translate(0, 0)" class="label"><foreignObject height="0" width="0"><div style="display: inline-block; white-space: nowrap;" xmlns="http://www.w3.org/1999/xhtml"><span class="edgeLabel"></span></div></foreignObject></g></g><g transform="translate(2009.56640625, 433.5)" class="edgeLabel"><g transform="translate(-154.03125, -9.5)" class="label"><foreignObject height="19" width="308.0625"><div style="display: inline-block; white-space: nowrap;" xmlns="http://www.w3.org/1999/xhtml"><span class="edgeLabel">typhoon signal record / memory query</span></div></foreignObject></g></g><g transform="translate(2268.75, 538.5)" class="edgeLabel"><g transform="translate(-45.1953125, -9.5)" class="label"><foreignObject height="19" width="90.390625"><div style="display: inline-block; white-space: nowrap;" xmlns="http://www.w3.org/1999/xhtml"><span class="edgeLabel">use targets</span></div></foreignObject></g></g><g transform="translate(1513.13671875, 698.5)" class="edgeLabel"><g transform="translate(-96.46875, -9.5)" class="label"><foreignObject height="19" width="192.9375"><div style="display: inline-block; white-space: nowrap;" xmlns="http://www.w3.org/1999/xhtml"><span class="edgeLabel">prompts + tool-call loop</span></div></foreignObject></g></g><g transform="translate(2204.1171875, 822.5)" class="edgeLabel"><g transform="translate(-131.6484375, -9.5)" class="label"><foreignObject height="19" width="263.296875"><div style="display: inline-block; white-space: nowrap;" xmlns="http://www.w3.org/1999/xhtml"><span class="edgeLabel">execute requested tools on PATH</span></div></foreignObject></g></g><g transform="translate(1629.60546875, 822.5)" class="edgeLabel"><g transform="translate(-58.15625, -9.5)" class="label"><foreignObject height="19" width="116.3125"><div style="display: inline-block; white-space: nowrap;" xmlns="http://www.w3.org/1999/xhtml"><span class="edgeLabel">memory reads</span></div></foreignObject></g></g><g transform="translate(1885.7109375, 698.5)" class="edgeLabel"><g transform="translate(-91.65625, -9.5)" class="label"><foreignObject height="19" width="183.3125"><div style="display: inline-block; white-space: nowrap;" xmlns="http://www.w3.org/1999/xhtml"><span class="edgeLabel">tells recorder to record</span></div></foreignObject></g></g><g transform="translate(253.1328125, 971.5)" class="edgeLabel"><g transform="translate(-54.65625, -9.5)" class="label"><foreignObject height="19" width="109.3125"><div style="display: inline-block; white-space: nowrap;" xmlns="http://www.w3.org/1999/xhtml"><span class="edgeLabel">writes signals</span></div></foreignObject></g></g><g transform="translate(3184.375, 538.5)" class="edgeLabel"><g transform="translate(-107.8828125, -9.5)" class="label"><foreignObject height="19" width="215.765625"><div style="display: inline-block; white-space: nowrap;" xmlns="http://www.w3.org/1999/xhtml"><span class="edgeLabel">wakes management target</span></div></foreignObject></g></g><g transform="translate(2849.796875, 698.5)" class="edgeLabel"><g transform="translate(-89.21875, -9.5)" class="label"><foreignObject height="19" width="178.4375"><div style="display: inline-block; white-space: nowrap;" xmlns="http://www.w3.org/1999/xhtml"><span class="edgeLabel">proposal brief drafting</span></div></foreignObject></g></g><g transform="translate(3742.53125, 698.5)" class="edgeLabel"><g transform="translate(-199.25, -9.5)" class="label"><foreignObject height="19" width="398.5"><div style="display: inline-block; white-space: nowrap;" xmlns="http://www.w3.org/1999/xhtml"><span class="edgeLabel">writes proposal briefs when ready: awaiting_forge</span></div></foreignObject></g></g><g class="edgeLabel"><g transform="translate(0, 0)" class="label"><foreignObject height="0" width="0"><div style="display: inline-block; white-space: nowrap;" xmlns="http://www.w3.org/1999/xhtml"><span class="edgeLabel"></span></div></foreignObject></g></g><g class="edgeLabel"><g transform="translate(0, 0)" class="label"><foreignObject height="0" width="0"><div style="display: inline-block; white-space: nowrap;" xmlns="http://www.w3.org/1999/xhtml"><span class="edgeLabel"></span></div></foreignObject></g></g><g class="edgeLabel"><g transform="translate(0, 0)" class="label"><foreignObject height="0" width="0"><div style="display: inline-block; white-space: nowrap;" xmlns="http://www.w3.org/1999/xhtml"><span class="edgeLabel"></span></div></foreignObject></g></g><g transform="translate(2782.640625, 303.5)" class="edgeLabel"><g transform="translate(-93.921875, -9.5)" class="label"><foreignObject height="19" width="187.84375"><div style="display: inline-block; white-space: nowrap;" xmlns="http://www.w3.org/1999/xhtml"><span class="edgeLabel">reads gateway liveness</span></div></foreignObject></g></g><g transform="translate(2953.71875, 303.5)" class="edgeLabel"><g transform="translate(-57.15625, -9.5)" class="label"><foreignObject height="19" width="114.3125"><div style="display: inline-block; white-space: nowrap;" xmlns="http://www.w3.org/1999/xhtml"><span class="edgeLabel">reads liveness</span></div></foreignObject></g></g></g><g class="nodes"><g transform="translate(188.671875, 1054.3366584777832)" data-id="DB" data-node="true" id="flowchart-DB-14" class="node default default flowchart-label"><path transform="translate(-87.1328125,-48.336657442698275)" d="M 0,14.557771628465515 a 87.1328125,14.557771628465515 0,0,0 174.265625 0 a 87.1328125,14.557771628465515 0,0,0 -174.265625 0 l 0,67.55777162846552 a 87.1328125,14.557771628465515 0,0,0 174.265625 0 l 0,-67.55777162846552" style=""/><g transform="translate(-79.6328125, -19)" style="" class="label"><rect/><foreignObject height="38" width="159.265625"><div style="display: inline-block; white-space: nowrap;" xmlns="http://www.w3.org/1999/xhtml"><span class="nodeLabel">TursoDB cloud DB<br /><i>required state store</i></span></div></foreignObject></g></g><g transform="translate(124.2109375, 822.5)" data-id="CHQ" data-node="true" id="flowchart-CHQ-15" class="node default default flowchart-label"><path transform="translate(-89.2109375,-48.55121272980072)" d="M 0,14.700808486533807 a 89.2109375,14.700808486533807 0,0,0 178.421875 0 a 89.2109375,14.700808486533807 0,0,0 -178.421875 0 l 0,67.70080848653382 a 89.2109375,14.700808486533807 0,0,0 178.421875 0 l 0,-67.70080848653382" style=""/><g transform="translate(-81.7109375, -19)" style="" class="label"><rect/><foreignObject height="38" width="163.421875"><div style="display: inline-block; white-space: nowrap;" xmlns="http://www.w3.org/1999/xhtml"><span class="nodeLabel">Channel queue rows<br /><i>Turso inbox / outbox</i></span></div></foreignObject></g></g><g transform="translate(412.72265625, 1054.3366584777832)" data-id="FS" data-node="true" id="flowchart-FS-16" class="node default default flowchart-label"><rect height="72" width="134.78125" y="-36" x="-67.390625" ry="0" rx="0" style="" class="basic label-container"/><g transform="translate(-59.890625, -28.5)" style="" class="label"><rect/><foreignObject height="57" width="119.78125"><div style="display: inline-block; white-space: nowrap;" xmlns="http://www.w3.org/1999/xhtml"><span class="nodeLabel">Filesystem<br />~/.typhoon/bin<br />.history/</span></div></foreignObject></g></g><g transform="translate(714.88671875, 822.5)" data-id="OLLM" data-node="true" id="flowchart-OLLM-12" class="node default default flowchart-label"><rect height="53" width="289.546875" y="-26.5" x="-144.7734375" ry="0" rx="0" style="" class="basic label-container"/><g transform="translate(-137.2734375, -19)" style="" class="label"><rect/><foreignObject height="38" width="274.546875"><div style="display: inline-block; white-space: nowrap;" xmlns="http://www.w3.org/1999/xhtml"><span class="nodeLabel">Frontier LLM<br /><i>queued gateway-worker path only</i></span></div></foreignObject></g></g><g transform="translate(966.66015625, 822.5)" data-id="DLLM" data-node="true" id="flowchart-DLLM-13" class="node default default flowchart-label"><rect height="53" width="114" y="-26.5" x="-57" ry="0" rx="0" style="" class="basic label-container"/><g transform="translate(-49.5, -19)" style="" class="label"><rect/><foreignObject height="38" width="99"><div style="display: inline-block; white-space: nowrap;" xmlns="http://www.w3.org/1999/xhtml"><span class="nodeLabel">Dream LLM<br />cheap batch</span></div></foreignObject></g></g><g transform="translate(2508.625, 433.5)" data-id="CRON" data-node="true" id="flowchart-CRON-8" class="node default default flowchart-label"><rect height="91" width="235.71875" y="-45.5" x="-117.859375" ry="0" rx="0" style="" class="basic label-container"/><g transform="translate(-110.359375, -38)" style="" class="label"><rect/><foreignObject height="76" width="220.71875"><div style="display: inline-block; white-space: nowrap;" xmlns="http://www.w3.org/1999/xhtml"><span class="nodeLabel"><b>typhoon cron</b><br />general scheduler<br /><i>use targets via core;<br />management targets direct</i></span></div></foreignObject></g></g><g transform="translate(3632.90625, 822.5)" data-id="TOOLMGR" data-node="true" id="flowchart-TOOLMGR-9" class="node default default flowchart-label"><rect height="129" width="313.609375" y="-64.5" x="-156.8046875" ry="0" rx="0" style="" class="basic label-container"/><g transform="translate(-149.3046875, -57)" style="" class="label"><rect/><foreignObject height="114" width="298.609375"><div style="display: inline-block; white-space: nowrap;" xmlns="http://www.w3.org/1999/xhtml"><span class="nodeLabel"><b>typhoon tool — tool manager</b><br /><b>ingest:</b> propose list / show / submit /<br />approve / reject<br /><b>operate:</b> list / show / diff / history /<br />disable / enable / rollback /<br />delete / purge / promote / sync</span></div></foreignObject></g></g><g transform="translate(3131, 618.5)" data-id="DREAM" data-node="true" id="flowchart-DREAM-10" class="node default default flowchart-label"><rect height="91" width="407.046875" y="-45.5" x="-203.5234375" ry="0" rx="0" style="" class="basic label-container"/><g transform="translate(-196.0234375, -38)" style="" class="label"><rect/><foreignObject height="76" width="392.046875"><div style="display: inline-block; white-space: nowrap;" xmlns="http://www.w3.org/1999/xhtml"><span class="nodeLabel"><b>typhoon dream</b><br /><i>readiness-gated batch; lease row in dream_runs.<br />Runs when signal tokens/chains accumulate.<br />status / cancel via dream_runs</i></span></div></foreignObject></g></g><g transform="translate(2874.7265625, 208)" data-id="HEALTH" data-node="true" id="flowchart-HEALTH-11" class="node default default flowchart-label"><rect height="72" width="186.78125" y="-36" x="-93.390625" ry="0" rx="0" style="" class="basic label-container"/><g transform="translate(-85.890625, -28.5)" style="" class="label"><rect/><foreignObject height="57" width="171.78125"><div style="display: inline-block; white-space: nowrap;" xmlns="http://www.w3.org/1999/xhtml"><span class="nodeLabel"><b>typhoon health</b><br /><i>reports gateway/cron<br />daemon liveness</i></span></div></foreignObject></g></g><g transform="translate(1861.5546875, 618.5)" data-id="CORE" data-node="true" id="flowchart-CORE-6" class="node default default flowchart-label"><polygon style="" transform="translate(-137.28125,45.5)" class="label-container" points="22.75,0 251.8125,0 274.5625,-45.5 251.8125,-91 22.75,-91 0,-45.5"/><g transform="translate(-107.03125, -38)" style="" class="label"><rect/><foreignObject height="76" width="214.0625"><div style="display: inline-block; white-space: nowrap;" xmlns="http://www.w3.org/1999/xhtml"><span class="nodeLabel"><b>Typhoon core</b><br />dispatcher<br /><i>master path for every use;<br />sole driver of the recorder</i></span></div></foreignObject></g></g><g transform="translate(1885.7109375, 822.5)" data-id="REC" data-node="true" id="flowchart-REC-7" class="node default default flowchart-label"><polygon style="" transform="translate(-127.7578125,36)" class="label-container" points="-24,0 243.515625,0 279.515625,-72 12,-72"/><g transform="translate(-120.2578125, -28.5)" style="" class="label"><rect/><foreignObject height="57" width="240.515625"><div style="display: inline-block; white-space: nowrap;" xmlns="http://www.w3.org/1999/xhtml"><span class="nodeLabel"><b>Signal recorder</b><br /><i>sole writer to the signal store;<br />driven only by core</i></span></div></foreignObject></g></g><g transform="translate(1248.78515625, 433.5)" data-id="EDGE" data-node="true" id="flowchart-EDGE-4" class="node default default flowchart-label"><rect height="72" width="190.25" y="-36" x="-95.125" ry="0" rx="0" style="" class="basic label-container"/><g transform="translate(-87.625, -28.5)" style="" class="label"><rect/><foreignObject height="57" width="175.25"><div style="display: inline-block; white-space: nowrap;" xmlns="http://www.w3.org/1999/xhtml"><span class="nodeLabel"><b>gateway edge loop</b><br />Telegram-facing<br /><i>adapter + queue only</i></span></div></foreignObject></g></g><g transform="translate(1524.55078125, 433.5)" data-id="WORKER" data-node="true" id="flowchart-WORKER-5" class="node default default flowchart-label"><rect height="72" width="261.28125" y="-36" x="-130.640625" ry="0" rx="0" style="" class="basic label-container"/><g transform="translate(-123.140625, -28.5)" style="" class="label"><rect/><foreignObject height="57" width="246.28125"><div style="display: inline-block; white-space: nowrap;" xmlns="http://www.w3.org/1999/xhtml"><span class="nodeLabel"><b>gateway worker loop</b><br />Typhoon Way agent loop<br /><i>queue consumer; invokes core</i></span></div></foreignObject></g></g><g transform="translate(374.39453125, 208)" data-id="TG" data-node="true" id="flowchart-TG-2" class="node default default flowchart-label"><rect height="34" width="119.625" y="-17" x="-59.8125" ry="0" rx="0" style="" class="basic label-container"/><g transform="translate(-52.3125, -9.5)" style="" class="label"><rect/><foreignObject height="19" width="104.625"><div style="display: inline-block; white-space: nowrap;" xmlns="http://www.w3.org/1999/xhtml"><span class="nodeLabel">Telegram bot</span></div></foreignObject></g></g><g transform="translate(604.05859375, 208)" data-id="EXT" data-node="true" id="flowchart-EXT-3" class="node default default flowchart-label"><rect height="72" width="239.703125" y="-36" x="-119.8515625" ry="0" rx="0" style="" class="basic label-container"/><g transform="translate(-112.3515625, -28.5)" style="" class="label"><rect/><foreignObject height="57" width="224.703125"><div style="display: inline-block; white-space: nowrap;" xmlns="http://www.w3.org/1999/xhtml"><span class="nodeLabel">External agent CLI<br />Claude Code, Cursor, Codex<br /><i>operator only in v0.1</i></span></div></foreignObject></g></g><g transform="translate(3239.6953125, 26.5)" data-id="OP" data-node="true" id="flowchart-OP-0" class="node default default flowchart-label"><rect height="34" width="95.125" y="-17" x="-47.5625" ry="17" rx="17" style=""/><g transform="translate(-35.8125, -9.5)" style="" class="label"><rect/><foreignObject height="19" width="71.625"><div style="display: inline-block; white-space: nowrap;" xmlns="http://www.w3.org/1999/xhtml"><span class="nodeLabel">Operator</span></div></foreignObject></g></g><g transform="translate(431.578125, 26.5)" data-id="USERS" data-node="true" id="flowchart-USERS-1" class="node default default flowchart-label"><rect height="53" width="185.09375" y="-26.5" x="-92.546875" ry="26.5" rx="26.5" style=""/><g transform="translate(-78.421875, -19)" style="" class="label"><rect/><foreignObject height="38" width="156.84375"><div style="display: inline-block; white-space: nowrap;" xmlns="http://www.w3.org/1999/xhtml"><span class="nodeLabel">Users<br /><i>via channel binding</i></span></div></foreignObject></g></g><g transform="translate(4353.96875, 208)" data-id="FORGE" data-node="true" id="flowchart-FORGE-17" class="node default default flowchart-label"><rect height="72" width="153.140625" y="-36" x="-76.5703125" ry="0" rx="0" style="" class="basic label-container"/><g transform="translate(-69.0703125, -28.5)" style="" class="label"><rect/><foreignObject height="57" width="138.140625"><div style="display: inline-block; white-space: nowrap;" xmlns="http://www.w3.org/1999/xhtml"><span class="nodeLabel">Forge workflow<br />manual v0.1;<br />CLI-assisted later</span></div></foreignObject></g></g></g></g></g></svg>