<svg aria-roledescription="flowchart-v2" role="graphics-document document" viewBox="-8 -8 4580.97265625 1143.67333984375" style="max-width: 4580.97px; background-color: transparent;" xmlns:xlink="http://www.w3.org/1999/xlink" xmlns="http://www.w3.org/2000/svg" width="100%" id="my-svg"><style>#my-svg{font-family:"trebuchet ms",verdana,arial,sans-serif;font-size:16px;fill:#000000;}#my-svg .error-icon{fill:#552222;}#my-svg .error-text{fill:#552222;stroke:#552222;}#my-svg .edge-thickness-normal{stroke-width:2px;}#my-svg .edge-thickness-thick{stroke-width:3.5px;}#my-svg .edge-pattern-solid{stroke-dasharray:0;}#my-svg .edge-pattern-dashed{stroke-dasharray:3;}#my-svg .edge-pattern-dotted{stroke-dasharray:2;}#my-svg .marker{fill:#666;stroke:#666;}#my-svg .marker.cross{stroke:#666;}#my-svg svg{font-family:"trebuchet ms",verdana,arial,sans-serif;font-size:16px;}#my-svg .label{font-family:"trebuchet ms",verdana,arial,sans-serif;color:#000000;}#my-svg .cluster-label text{fill:#333;}#my-svg .cluster-label span,#my-svg p{color:#333;}#my-svg .label text,#my-svg span,#my-svg p{fill:#000000;color:#000000;}#my-svg .node rect,#my-svg .node circle,#my-svg .node ellipse,#my-svg .node polygon,#my-svg .node path{fill:#eee;stroke:#999;stroke-width:1px;}#my-svg .flowchart-label text{text-anchor:middle;}#my-svg .node .katex path{fill:#000;stroke:#000;stroke-width:1px;}#my-svg .node .label{text-align:center;}#my-svg .node.clickable{cursor:pointer;}#my-svg .arrowheadPath{fill:#333333;}#my-svg .edgePath .path{stroke:#666;stroke-width:2.0px;}#my-svg .flowchart-link{stroke:#666;fill:none;}#my-svg .edgeLabel{background-color:white;text-align:center;}#my-svg .edgeLabel rect{opacity:0.5;background-color:white;fill:white;}#my-svg .labelBkg{background-color:rgba(255, 255, 255, 0.5);}#my-svg .cluster rect{fill:hsl(0, 0%, 98.9215686275%);stroke:#707070;stroke-width:1px;}#my-svg .cluster text{fill:#333;}#my-svg .cluster span,#my-svg p{color:#333;}#my-svg div.mermaidTooltip{position:absolute;text-align:center;max-width:200px;padding:2px;font-family:"trebuchet ms",verdana,arial,sans-serif;font-size:12px;background:hsl(-160, 0%, 93.3333333333%);border:1px solid #707070;border-radius:2px;pointer-events:none;z-index:100;}#my-svg .flowchartTitleText{text-anchor:middle;font-size:18px;fill:#000000;}#my-svg :root{--mermaid-font-family:"trebuchet ms",verdana,arial,sans-serif;}</style><g><marker orient="auto" markerHeight="12" markerWidth="12" markerUnits="userSpaceOnUse" refY="5" refX="6" viewBox="0 0 10 10" class="marker flowchart" id="my-svg_flowchart-pointEnd"><path style="stroke-width: 1; stroke-dasharray: 1, 0;" class="arrowMarkerPath" d="M 0 0 L 10 5 L 0 10 z"/></marker><marker orient="auto" markerHeight="12" markerWidth="12" markerUnits="userSpaceOnUse" refY="5" refX="4.5" viewBox="0 0 10 10" class="marker flowchart" id="my-svg_flowchart-pointStart"><path style="stroke-width: 1; stroke-dasharray: 1, 0;" class="arrowMarkerPath" d="M 0 5 L 10 10 L 10 0 z"/></marker><marker orient="auto" markerHeight="11" markerWidth="11" markerUnits="userSpaceOnUse" refY="5" refX="11" viewBox="0 0 10 10" class="marker flowchart" id="my-svg_flowchart-circleEnd"><circle style="stroke-width: 1; stroke-dasharray: 1, 0;" class="arrowMarkerPath" r="5" cy="5" cx="5"/></marker><marker orient="auto" markerHeight="11" markerWidth="11" markerUnits="userSpaceOnUse" refY="5" refX="-1" viewBox="0 0 10 10" class="marker flowchart" id="my-svg_flowchart-circleStart"><circle style="stroke-width: 1; stroke-dasharray: 1, 0;" class="arrowMarkerPath" r="5" cy="5" cx="5"/></marker><marker orient="auto" markerHeight="11" markerWidth="11" markerUnits="userSpaceOnUse" refY="5.2" refX="12" viewBox="0 0 11 11" class="marker cross flowchart" id="my-svg_flowchart-crossEnd"><path style="stroke-width: 2; stroke-dasharray: 1, 0;" class="arrowMarkerPath" d="M 1,1 l 9,9 M 10,1 l -9,9"/></marker><marker orient="auto" markerHeight="11" markerWidth="11" markerUnits="userSpaceOnUse" refY="5.2" refX="-1" viewBox="0 0 11 11" class="marker cross flowchart" id="my-svg_flowchart-crossStart"><path style="stroke-width: 2; stroke-dasharray: 1, 0;" class="arrowMarkerPath" d="M 1,1 l 9,9 M 10,1 l -9,9"/></marker><g class="root"><g class="clusters"><g id="State" class="cluster default flowchart-label"><rect height="394.6733169555664" width="515.11328125" y="733" x="0" ry="0" rx="0" style=""/><g transform="translate(206.580078125, 733)" class="cluster-label"><foreignObject height="19" width="101.953125"><div style="display: inline-block; white-space: nowrap;" xmlns="http://www.w3.org/1999/xhtml"><span class="nodeLabel">Shared state</span></div></foreignObject></g></g><g id="LLMs" class="cluster default flowchart-label"><rect height="204" width="523.546875" y="733" x="535.11328125" ry="0" rx="0" style=""/><g transform="translate(796.88671875, 733)" class="cluster-label"><foreignObject height="0" width="0"><div style="display: inline-block; white-space: nowrap;" xmlns="http://www.w3.org/1999/xhtml"><span class="nodeLabel"></span></div></foreignObject></g></g><g id="Typhoon" class="cluster default flowchart-label"><rect height="815" width="2802.98828125" y="122" x="1078.66015625" ry="0" rx="0" style=""/><g transform="translate(2342.388671875, 122)" class="cluster-label"><foreignObject height="19" width="275.53125"><div style="display: inline-block; white-space: nowrap;" xmlns="http://www.w3.org/1999/xhtml"><span class="nodeLabel">Typhoon — one binary, two planes</span></div></foreignObject></g></g><g id="Channels" class="cluster default flowchart-label"><rect height="147" width="479.328125" y="122" x="268.875" ry="0" rx="0" style=""/><g transform="translate(508.5390625, 122)" class="cluster-label"><foreignObject height="0" width="0"><div style="display: inline-block; white-space: nowrap;" xmlns="http://www.w3.org/1999/xhtml"><span class="nodeLabel"></span></div></foreignObject></g></g><g id="UsePlane" class="cluster default flowchart-label"><rect height="574" width="1257.10546875" y="338" x="1098.66015625" ry="0" rx="0" style=""/><g transform="translate(1530.103515625, 338)" class="cluster-label"><foreignObject height="19" width="394.21875"><div style="display: inline-block; white-space: nowrap;" xmlns="http://www.w3.org/1999/xhtml"><span class="nodeLabel">Use plane — routes through core, records signals</span></div></foreignObject></g></g><g id="MgmtPlane" class="cluster default flowchart-label"><rect height="765" width="1200.1640625" y="147" x="2661.484375" ry="0" rx="0" style=""/><g transform="translate(3068.52734375, 147)" class="cluster-label"><foreignObject height="19" width="386.078125"><div style="display: inline-block; white-space: nowrap;" xmlns="http://www.w3.org/1999/xhtml"><span class="nodeLabel">Management plane — bypasses core, no signals</span></div></foreignObject></g></g><g id="ChannelPath" class="cluster default flowchart-label"><rect height="141" width="615.1796875" y="363" x="1118.66015625" ry="0" rx="0" style=""/><g transform="translate(1245.1796875, 363)" class="cluster-label"><foreignObject height="19" width="362.140625"><div style="display: inline-block; white-space: nowrap;" xmlns="http://www.w3.org/1999/xhtml"><span class="nodeLabel">typhoon gateway — edge loop + worker loop</span></div></foreignObject></g></g></g><g class="edgePaths"><path marker-end="url(#my-svg_flowchart-pointEnd)" marker-start="url(#my-svg_flowchart-pointStart)" style="fill:none;" class="edge-thickness-normal edge-pattern-solid flowchart-link LS-OP LE-TG" id="L-OP-TG-0" d="M3170.611,27.617L2698.223,37.597C2225.835,47.578,1281.058,67.539,808.67,83.269C336.281,99,336.281,110.5,336.281,120.417C336.281,130.333,336.281,138.667,339.214,149.361C342.147,160.055,348.012,173.11,350.945,179.638L353.878,186.166"/><path marker-end="url(#my-svg_flowchart-pointEnd)" marker-start="url(#my-svg_flowchart-pointStart)" style="fill:none;" class="edge-thickness-normal edge-pattern-solid flowchart-link LS-OP LE-EXT" id="L-OP-EXT-0" d="M3170.612,27.726L2741.068,37.688C2311.525,47.651,1452.438,67.575,1022.895,83.288C593.352,99,593.352,110.5,593.352,120.417C593.352,130.333,593.352,138.667,593.352,146.117C593.352,153.567,593.352,160.133,593.352,163.417L593.352,166.7"/><path marker-end="url(#my-svg_flowchart-pointEnd)" marker-start="url(#my-svg_flowchart-pointStart)" style="fill:none;" class="edge-thickness-normal edge-pattern-solid flowchart-link LS-USERS LE-TG" id="L-USERS-TG-0" d="M444.833,57.177L448.781,62.231C452.729,67.285,460.624,77.392,464.572,88.196C468.52,99,468.52,110.5,468.52,120.417C468.52,130.333,468.52,138.667,456.68,149.722C444.841,160.778,421.162,174.556,409.323,181.445L397.484,188.334"/><path marker-end="url(#my-svg_flowchart-pointEnd)" style="fill:none;" class="edge-thickness-normal edge-pattern-solid flowchart-link LS-OP LE-TOOLMGR" id="L-OP-TOOLMGR-0" d="M3263.503,43.5L3280.77,50.833C3298.038,58.167,3332.574,72.833,3349.842,85.917C3367.109,99,3367.109,110.5,3367.109,120.417C3367.109,130.333,3367.109,138.667,3367.109,153C3367.109,167.333,3367.109,187.667,3367.109,208C3367.109,228.333,3367.109,248.667,3367.109,264.583C3367.109,280.5,3367.109,292,3367.109,303.5C3367.109,315,3367.109,326.5,3367.109,336.417C3367.109,346.333,3367.109,354.667,3367.109,370.583C3367.109,386.5,3367.109,410,3367.109,433.5C3367.109,457,3367.109,480.5,3367.109,498C3367.109,515.5,3367.109,527,3367.109,546.083C3367.109,565.167,3367.109,591.833,3367.109,618.5C3367.109,645.167,3367.109,671.833,3367.109,690.917C3367.109,710,3367.109,721.5,3376.762,731.184C3386.415,740.867,3405.72,748.734,3415.373,752.668L3425.025,756.601"/><path marker-end="url(#my-svg_flowchart-pointEnd)" style="fill:none;" class="edge-thickness-normal edge-pattern-solid flowchart-link LS-OP LE-DREAM" id="L-OP-DREAM-0" d="M3176.937,43.5L3156.863,50.833C3136.789,58.167,3096.64,72.833,3076.566,85.917C3056.492,99,3056.492,110.5,3056.492,120.417C3056.492,130.333,3056.492,138.667,3056.492,153C3056.492,167.333,3056.492,187.667,3056.492,208C3056.492,228.333,3056.492,248.667,3056.492,264.583C3056.492,280.5,3056.492,292,3056.492,303.5C3056.492,315,3056.492,326.5,3056.492,336.417C3056.492,346.333,3056.492,354.667,3056.492,370.583C3056.492,386.5,3056.492,410,3056.492,433.5C3056.492,457,3056.492,480.5,3056.492,498C3056.492,515.5,3056.492,527,3060.864,537.83C3065.237,548.661,3073.981,558.822,3078.353,563.902L3082.726,568.983"/><path marker-end="url(#my-svg_flowchart-pointEnd)" style="fill:none;stroke-width:2px;stroke-dasharray:3;" class="edge-thickness-normal edge-pattern-dotted flowchart-link LS-OP LE-FORGE" id="L-OP-FORGE-0" d="M3271.035,30.508L3383.768,40.006C3496.501,49.505,3721.967,68.503,3834.701,83.751C3947.434,99,3947.434,110.5,3947.434,120.417C3947.434,130.333,3947.434,138.667,3983.437,150.209C4019.441,161.75,4091.449,176.501,4127.452,183.876L4163.456,191.251"/><path marker-end="url(#my-svg_flowchart-pointEnd)" style="fill:none;stroke-width:2px;stroke-dasharray:3;" class="edge-thickness-normal edge-pattern-dotted flowchart-link LS-FORGE LE-OP" id="L-FORGE-OP-0" d="M4277.325,172L4281.041,167.833C4284.757,163.667,4292.189,155.333,4295.905,147C4299.621,138.667,4299.621,130.333,4299.621,120.417C4299.621,110.5,4299.621,99,4129.072,83.583C3958.523,68.165,3617.425,48.831,3446.876,39.163L3276.327,29.496"/><path marker-end="url(#my-svg_flowchart-pointEnd)" style="fill:none;stroke-width:2px;stroke-dasharray:3;" class="edge-thickness-normal edge-pattern-dotted flowchart-link LS-FORGE LE-TOOLMGR" id="L-FORGE-TOOLMGR-0" d="M4168.648,214.448L4060.685,223.54C3952.721,232.632,3736.794,250.816,3628.831,265.658C3520.867,280.5,3520.867,292,3520.867,303.5C3520.867,315,3520.867,326.5,3520.867,336.417C3520.867,346.333,3520.867,354.667,3520.867,370.583C3520.867,386.5,3520.867,410,3520.867,433.5C3520.867,457,3520.867,480.5,3520.867,498C3520.867,515.5,3520.867,527,3520.867,546.083C3520.867,565.167,3520.867,591.833,3520.867,618.5C3520.867,645.167,3520.867,671.833,3520.867,690.917C3520.867,710,3520.867,721.5,3523.41,730.705C3525.953,739.91,3531.039,746.821,3533.582,750.276L3536.125,753.731"/><path marker-end="url(#my-svg_flowchart-pointEnd)" marker-start="url(#my-svg_flowchart-pointStart)" style="fill:none;" class="edge-thickness-normal edge-pattern-solid flowchart-link LS-TG LE-EDGE" id="L-TG-EDGE-0" d="M363.688,230.3L363.688,236.75C363.688,243.2,363.688,256.1,511.204,268.3C658.72,280.5,953.753,292,1101.269,303.5C1248.785,315,1248.785,326.5,1248.785,336.417C1248.785,346.333,1248.785,354.667,1248.785,363.7C1248.785,372.733,1248.785,382.467,1248.785,387.333L1248.785,392.2"/><path marker-end="url(#my-svg_flowchart-pointEnd)" marker-start="url(#my-svg_flowchart-pointStart)" style="fill:none;" class="edge-thickness-normal edge-pattern-solid flowchart-link LS-EDGE LE-CHQ" id="L-EDGE-CHQ-0" d="M1248.785,474.8L1248.785,479.667C1248.785,484.533,1248.785,494.267,1248.785,504.883C1248.785,515.5,1248.785,527,1248.785,546.083C1248.785,565.167,1248.785,591.833,1248.785,618.5C1248.785,645.167,1248.785,671.833,1248.785,690.917C1248.785,710,1248.785,721.5,1077.105,740.913C905.425,760.327,562.065,787.653,390.385,801.316L218.705,814.98"/><path marker-end="url(#my-svg_flowchart-pointEnd)" marker-start="url(#my-svg_flowchart-pointStart)" style="fill:none;" class="edge-thickness-normal edge-pattern-solid flowchart-link LS-WORKER LE-CHQ" id="L-WORKER-CHQ-0" d="M1454.607,472.059L1444.951,477.382C1435.294,482.706,1415.981,493.353,1406.325,504.426C1396.668,515.5,1396.668,527,1396.668,546.083C1396.668,565.167,1396.668,591.833,1396.668,618.5C1396.668,645.167,1396.668,671.833,1396.668,690.917C1396.668,710,1396.668,721.5,1200.341,741.059C1004.015,760.618,611.362,788.236,415.035,802.044L218.709,815.853"/><path marker-end="url(#my-svg_flowchart-pointEnd)" style="fill:none;stroke-width:2px;stroke-dasharray:3;" class="edge-thickness-normal edge-pattern-dotted flowchart-link LS-CHQ LE-DB" id="L-CHQ-DB-0" d="M124.211,871.051L124.211,877.876C124.211,884.701,124.211,898.35,124.211,909.342C124.211,920.333,124.211,928.667,124.211,938.583C124.211,948.5,124.211,960,128.157,971.03C132.102,982.06,139.994,992.621,143.939,997.901L147.885,1003.181"/><path marker-end="url(#my-svg_flowchart-pointEnd)" style="fill:none;" class="edge-thickness-normal edge-pattern-solid flowchart-link LS-WORKER LE-CORE" id="L-WORKER-CORE-0" d="M1584.024,469.5L1593.523,475.25C1603.023,481,1622.021,492.5,1631.52,504C1641.02,515.5,1641.02,527,1656.033,538.523C1671.046,550.046,1701.073,561.592,1716.086,567.365L1731.1,573.138"/><path marker-end="url(#my-svg_flowchart-pointEnd)" style="fill:none;" class="edge-thickness-normal edge-pattern-solid flowchart-link LS-EXT LE-CORE" id="L-EXT-CORE-0" d="M593.352,244L593.352,248.167C593.352,252.333,593.352,260.667,829.387,270.583C1065.423,280.5,1537.495,292,1773.531,303.5C2009.566,315,2009.566,326.5,2009.566,336.417C2009.566,346.333,2009.566,354.667,2009.566,370.583C2009.566,386.5,2009.566,410,2009.566,433.5C2009.566,457,2009.566,480.5,2009.566,498C2009.566,515.5,2009.566,527,1999.027,538.179C1988.488,549.358,1967.409,560.215,1956.87,565.644L1946.331,571.073"/><path marker-end="url(#my-svg_flowchart-pointEnd)" style="fill:none;" class="edge-thickness-normal edge-pattern-solid flowchart-link LS-CRON LE-CORE" id="L-CRON-CORE-0" d="M2390.766,468.139L2370.43,474.116C2350.094,480.093,2309.422,492.046,2289.086,503.773C2268.75,515.5,2268.75,527,2220.932,542.001C2173.113,557.003,2077.477,575.506,2029.659,584.757L1981.84,594.009"/><path marker-end="url(#my-svg_flowchart-pointEnd)" marker-start="url(#my-svg_flowchart-pointStart)" style="fill:none;" class="edge-thickness-normal edge-pattern-solid flowchart-link LS-CORE LE-OLLM" id="L-CORE-OLLM-0" d="M1723.444,649.284L1688.393,657.487C1653.342,665.689,1583.239,682.095,1548.188,696.047C1513.137,710,1513.137,721.5,1405.102,739.363C1297.067,757.226,1080.997,781.452,972.962,793.565L864.927,805.677"/><path marker-end="url(#my-svg_flowchart-pointEnd)" style="fill:none;" class="edge-thickness-normal edge-pattern-solid flowchart-link LS-CORE LE-FS" id="L-CORE-FS-0" d="M1974.275,647.708L2010.798,656.173C2047.32,664.638,2120.365,681.569,2156.888,695.785C2193.41,710,2193.41,721.5,2193.41,742.167C2193.41,762.833,2193.41,792.667,2193.41,822.5C2193.41,852.333,2193.41,882.167,2280.384,901.25C2367.358,920.333,2541.306,928.667,2237.036,938.583C1932.766,948.5,1150.277,960,762.846,972.78C375.415,985.559,383.042,999.619,386.855,1006.648L390.668,1013.678"/><path marker-end="url(#my-svg_flowchart-pointEnd)" style="fill:none;" class="edge-thickness-normal edge-pattern-solid flowchart-link LS-CORE LE-DB" id="L-CORE-DB-0" d="M1735.086,661.04L1717.506,667.283C1699.926,673.526,1664.766,686.013,1647.186,698.007C1629.605,710,1629.605,721.5,1629.605,742.167C1629.605,762.833,1629.605,792.667,1629.605,822.5C1629.605,852.333,1629.605,882.167,1629.605,901.25C1629.605,920.333,1629.605,928.667,1387.751,938.583C1145.896,948.5,662.186,960,420.931,970.629C179.676,981.258,180.876,991.016,181.476,995.895L182.076,1000.774"/><path marker-end="url(#my-svg_flowchart-pointEnd)" style="stroke-width: 3.5px;fill:none;" class="edge-thickness-thick edge-pattern-solid flowchart-link LS-CORE LE-REC" id="L-CORE-REC-0" d="M1865.087,664.5L1866.739,670.167C1868.392,675.833,1871.698,687.167,1873.351,698.583C1875.004,710,1875.004,721.5,1875.079,735.367C1875.154,749.233,1875.305,765.467,1875.38,773.584L1875.455,781.7"/><path marker-end="url(#my-svg_flowchart-pointEnd)" style="stroke-width: 3.5px;fill:none;" class="edge-thickness-thick edge-pattern-solid flowchart-link LS-REC LE-DB" id="L-REC-DB-0" d="M1875.504,859L1875.421,867.833C1875.337,876.667,1875.171,894.333,1875.087,907.333C1875.004,920.333,1875.004,928.667,1604.692,938.583C1334.38,948.5,793.757,960,519.499,971.03C245.241,982.06,237.35,992.621,233.404,997.901L229.459,1003.181"/><path marker-end="url(#my-svg_flowchart-pointEnd)" style="fill:none;stroke-width:2px;stroke-dasharray:3;" class="edge-thickness-normal edge-pattern-dotted flowchart-link LS-CRON LE-DREAM" id="L-CRON-DREAM-0" d="M2626.484,445.705L2720.307,455.421C2814.13,465.137,3001.776,484.568,3095.599,500.034C3189.422,515.5,3189.422,527,3185.368,537.811C3181.315,548.621,3173.207,558.742,3169.154,563.803L3165.1,568.863"/><path marker-end="url(#my-svg_flowchart-pointEnd)" marker-start="url(#my-svg_flowchart-pointStart)" style="fill:none;" class="edge-thickness-normal edge-pattern-solid flowchart-link LS-DREAM LE-DLLM" id="L-DREAM-DLLM-0" d="M2963.535,665.478L2944.579,670.981C2925.622,676.485,2887.71,687.493,2868.753,698.746C2849.797,710,2849.797,721.5,2546.323,741.673C2242.849,761.846,1635.902,790.693,1332.428,805.116L1028.954,819.539"/><path marker-end="url(#my-svg_flowchart-pointEnd)" style="fill:none;" class="edge-thickness-normal edge-pattern-solid flowchart-link LS-DREAM LE-TOOLMGR" id="L-DREAM-TOOLMGR-0" d="M3312.785,644.998L3375.864,653.915C3438.943,662.832,3565.1,680.666,3628.179,695.333C3691.258,710,3691.258,721.5,3687.063,730.842C3682.868,740.184,3674.478,747.369,3670.283,750.961L3666.088,754.553"/><path marker-end="url(#my-svg_flowchart-pointEnd)" marker-start="url(#my-svg_flowchart-pointStart)" style="fill:none;" class="edge-thickness-normal edge-pattern-solid flowchart-link LS-DREAM LE-DB" id="L-DREAM-DB-0" d="M3125.34,669.3L3125.34,674.167C3125.34,679.033,3125.34,688.767,3125.34,699.383C3125.34,710,3125.34,721.5,3125.34,742.167C3125.34,762.833,3125.34,792.667,3125.34,822.5C3125.34,852.333,3125.34,882.167,3050.326,901.25C2975.311,920.333,2825.283,928.667,2359.024,938.583C1892.766,948.5,1110.277,960,710.081,972.512C309.885,985.025,291.982,998.549,283.03,1005.311L274.078,1012.074"/><path marker-end="url(#my-svg_flowchart-pointEnd)" marker-start="url(#my-svg_flowchart-pointStart)" style="fill:none;" class="edge-thickness-normal edge-pattern-solid flowchart-link LS-TOOLMGR LE-DB" id="L-TOOLMGR-DB-0" d="M3424.828,867.664L3398.338,875.053C3371.848,882.443,3318.867,897.221,3197.272,908.777C3075.676,920.333,2885.465,928.667,2399.115,938.583C1912.766,948.5,1130.277,960,727.752,973.905C325.226,987.809,302.663,1004.119,291.382,1012.273L280.1,1020.428"/><path marker-end="url(#my-svg_flowchart-pointEnd)" marker-start="url(#my-svg_flowchart-pointStart)" style="fill:none;" class="edge-thickness-normal edge-pattern-solid flowchart-link LS-TOOLMGR LE-FS" id="L-TOOLMGR-FS-0" d="M3713.221,889.48L3720.309,893.234C3727.396,896.987,3741.571,904.493,3748.659,912.413C3755.746,920.333,3755.746,928.667,3205.441,938.583C2655.137,948.5,1554.527,960,1000.734,972.765C446.941,985.53,439.963,999.561,436.474,1006.576L432.986,1013.591"/><path marker-end="url(#my-svg_flowchart-pointEnd)" style="fill:none;stroke-width:2px;stroke-dasharray:3;" class="edge-thickness-normal edge-pattern-dotted flowchart-link LS-HEALTH LE-EDGE" id="L-HEALTH-EDGE-0" d="M2817.698,244L2811.855,248.167C2806.012,252.333,2794.326,260.667,2788.483,270.583C2782.641,280.5,2782.641,292,2782.641,303.5C2782.641,315,2782.641,326.5,2782.641,336.417C2782.641,346.333,2782.641,354.667,2543.735,369.814C2304.829,384.961,1827.017,406.923,1588.111,417.904L1349.205,428.884"/><path marker-end="url(#my-svg_flowchart-pointEnd)" style="fill:none;stroke-width:2px;stroke-dasharray:3;" class="edge-thickness-normal edge-pattern-dotted flowchart-link LS-HEALTH LE-CRON" id="L-HEALTH-CRON-0" d="M2918.662,244L2924.505,248.167C2930.347,252.333,2942.033,260.667,2947.876,270.583C2953.719,280.5,2953.719,292,2953.719,303.5C2953.719,315,2953.719,326.5,2953.719,336.417C2953.719,346.333,2953.719,354.667,2900.052,367.334C2846.386,380.001,2739.052,397.002,2685.386,405.502L2631.719,414.003"/></g><g class="edgeLabels"><g class="edgeLabel"><g transform="translate(0, 0)" class="label"><foreignObject height="0" width="0"><div style="display: inline-block; white-space: nowrap;" xmlns="http://www.w3.org/1999/xhtml"><span class="edgeLabel"></span></div></foreignObject></g></g><g class="edgeLabel"><g transform="translate(0, 0)" class="label"><foreignObject height="0" width="0"><div style="display: inline-block; white-space: nowrap;" xmlns="http://www.w3.org/1999/xhtml"><span class="edgeLabel"></span></div></foreignObject></g></g><g class="edgeLabel"><g transform="translate(0, 0)" class="label"><foreignObject height="0" width="0"><div style="display: inline-block; white-space: nowrap;" xmlns="http://www.w3.org/1999/xhtml"><span class="edgeLabel"></span></div></foreignObject></g></g><g class="edgeLabel"><g transform="translate(0, 0)" class="label"><foreignObject height="0" width="0"><div style="display: inline-block; white-space: nowrap;" xmlns="http://www.w3.org/1999/xhtml"><span class="edgeLabel"></span></div></foreignObject></g></g><g class="edgeLabel"><g transform="translate(0, 0)" class="label"><foreignObject height="0" width="0"><div style="display: inline-block; white-space: nowrap;" xmlns="http://www.w3.org/1999/xhtml"><span class="edgeLabel"></span></div></foreignObject></g></g><g transform="translate(3947.43359375, 87.5)" class="edgeLabel"><g transform="translate(-66.8359375, -9.5)" class="label"><foreignObject height="19" width="133.671875"><div style="display: inline-block; white-space: nowrap;" xmlns="http://www.w3.org/1999/xhtml"><span class="edgeLabel">drives externally</span></div></foreignObject></g></g><g transform="translate(4299.62109375, 87.5)" class="edgeLabel"><g transform="translate(-265.3515625, -9.5)" class="label"><foreignObject height="19" width="530.703125"><div style="display: inline-block; white-space: nowrap;" xmlns="http://www.w3.org/1999/xhtml"><span class="edgeLabel">requirements + tool.md + source + tests + correctness argument</span></div></foreignObject></g></g><g transform="translate(3520.8671875, 538.5)" class="edgeLabel"><g transform="translate(-133.7578125, -9.5)" class="label"><foreignObject height="19" width="267.515625"><div style="display: inline-block; white-space: nowrap;" xmlns="http://www.w3.org/1999/xhtml"><span class="edgeLabel">via operator: tool propose submit</span></div></foreignObject></g></g><g class="edgeLabel"><g transform="translate(0, 0)" class="label"><foreignObject height="0" width="0"><div style="display: inline-block; white-space: nowrap;" xmlns="http://www.w3.org/1999/xhtml"><span class="edgeLabel"></span></div></foreignObject></g></g><g class="edgeLabel"><g transform="translate(0, 0)" class="label"><foreignObject height="0" width="0"><div style="display: inline-block; white-space: nowrap;" xmlns="http://www.w3.org/1999/xhtml"><span class="edgeLabel"></span></div></foreignObject></g></g><g class="edgeLabel"><g transform="translate(0, 0)" class="label"><foreignObject height="0" width="0"><div style="display: inline-block; white-space: nowrap;" xmlns="http://www.w3.org/1999/xhtml"><span class="edgeLabel"></span></div></foreignObject></g></g><g transform="translate(124.2109375, 971.5)" class="edgeLabel"><g transform="translate(-34.265625, -9.5)" class="label"><foreignObject height="19" width="68.53125"><div style="display: inline-block; white-space: nowrap;" xmlns="http://www.w3.org/1999/xhtml"><span class="edgeLabel">tables in</span></div></foreignObject></g></g><g class="edgeLabel"><g transform="translate(0, 0)" class="label"><foreignObject height="0" width="0"><div style="display: inline-block; white-space: nowrap;" xmlns="http://www.w3.org/1999/xhtml"><span class="edgeLabel"></span></div></foreignObject></g></g><g transform="translate(2009.56640625, 433.5)" class="edgeLabel"><g transform="translate(-154.03125, -9.5)" class="label"><foreignObject height="19" width="308.0625"><div style="display: inline-block; white-space: nowrap;" xmlns="http://www.w3.org/1999/xhtml"><span class="edgeLabel">typhoon signal record / memory query</span></div></foreignObject></g></g><g transform="translate(2268.75, 538.5)" class="edgeLabel"><g transform="translate(-45.1953125, -9.5)" class="label"><foreignObject height="19" width="90.390625"><div style="display: inline-block; white-space: nowrap;" xmlns="http://www.w3.org/1999/xhtml"><span class="edgeLabel">use targets</span></div></foreignObject></g></g><g transform="translate(1513.13671875, 698.5)" class="edgeLabel"><g transform="translate(-96.46875, -9.5)" class="label"><foreignObject height="19" width="192.9375"><div style="display: inline-block; white-space: nowrap;" xmlns="http://www.w3.org/1999/xhtml"><span class="edgeLabel">prompts + tool-call loop</span></div></foreignObject></g></g><g transform="translate(2193.41015625, 822.5)" class="edgeLabel"><g transform="translate(-131.6484375, -9.5)" class="label"><foreignObject height="19" width="263.296875"><div style="display: inline-block; white-space: nowrap;" xmlns="http://www.w3.org/1999/xhtml"><span class="edgeLabel">execute requested tools on PATH</span></div></foreignObject></g></g><g transform="translate(1629.60546875, 822.5)" class="edgeLabel"><g transform="translate(-58.15625, -9.5)" class="label"><foreignObject height="19" width="116.3125"><div style="display: inline-block; white-space: nowrap;" xmlns="http://www.w3.org/1999/xhtml"><span class="edgeLabel">memory reads</span></div></foreignObject></g></g><g transform="translate(1875.00390625, 698.5)" class="edgeLabel"><g transform="translate(-91.65625, -9.5)" class="label"><foreignObject height="19" width="183.3125"><div style="display: inline-block; white-space: nowrap;" xmlns="http://www.w3.org/1999/xhtml"><span class="edgeLabel">tells recorder to record</span></div></foreignObject></g></g><g transform="translate(253.1328125, 971.5)" class="edgeLabel"><g transform="translate(-54.65625, -9.5)" class="label"><foreignObject height="19" width="109.3125"><div style="display: inline-block; white-space: nowrap;" xmlns="http://www.w3.org/1999/xhtml"><span class="edgeLabel">writes signals</span></div></foreignObject></g></g><g transform="translate(3189.421875, 538.5)" class="edgeLabel"><g transform="translate(-112.9296875, -9.5)" class="label"><foreignObject height="19" width="225.859375"><div style="display: inline-block; white-space: nowrap;" xmlns="http://www.w3.org/1999/xhtml"><span class="edgeLabel">spawns management target</span></div></foreignObject></g></g><g transform="translate(2849.796875, 698.5)" class="edgeLabel"><g transform="translate(-89.21875, -9.5)" class="label"><foreignObject height="19" width="178.4375"><div style="display: inline-block; white-space: nowrap;" xmlns="http://www.w3.org/1999/xhtml"><span class="edgeLabel">proposal brief drafting</span></div></foreignObject></g></g><g transform="translate(3691.2578125, 698.5)" class="edgeLabel"><g transform="translate(-150.390625, -9.5)" class="label"><foreignObject height="19" width="300.78125"><div style="display: inline-block; white-space: nowrap;" xmlns="http://www.w3.org/1999/xhtml"><span class="edgeLabel">writes proposal briefs: awaiting_forge</span></div></foreignObject></g></g><g class="edgeLabel"><g transform="translate(0, 0)" class="label"><foreignObject height="0" width="0"><div style="display: inline-block; white-space: nowrap;" xmlns="http://www.w3.org/1999/xhtml"><span class="edgeLabel"></span></div></foreignObject></g></g><g class="edgeLabel"><g transform="translate(0, 0)" class="label"><foreignObject height="0" width="0"><div style="display: inline-block; white-space: nowrap;" xmlns="http://www.w3.org/1999/xhtml"><span class="edgeLabel"></span></div></foreignObject></g></g><g class="edgeLabel"><g transform="translate(0, 0)" class="label"><foreignObject height="0" width="0"><div style="display: inline-block; white-space: nowrap;" xmlns="http://www.w3.org/1999/xhtml"><span class="edgeLabel"></span></div></foreignObject></g></g><g transform="translate(2782.640625, 303.5)" class="edgeLabel"><g transform="translate(-93.921875, -9.5)" class="label"><foreignObject height="19" width="187.84375"><div style="display: inline-block; white-space: nowrap;" xmlns="http://www.w3.org/1999/xhtml"><span class="edgeLabel">reads gateway liveness</span></div></foreignObject></g></g><g transform="translate(2953.71875, 303.5)" class="edgeLabel"><g transform="translate(-57.15625, -9.5)" class="label"><foreignObject height="19" width="114.3125"><div style="display: inline-block; white-space: nowrap;" xmlns="http://www.w3.org/1999/xhtml"><span class="edgeLabel">reads liveness</span></div></foreignObject></g></g></g><g class="nodes"><g transform="translate(188.671875, 1054.3366584777832)" data-id="DB" data-node="true" id="flowchart-DB-14" class="node default default flowchart-label"><path transform="translate(-87.1328125,-48.336657442698275)" d="M 0,14.557771628465515 a 87.1328125,14.557771628465515 0,0,0 174.265625 0 a 87.1328125,14.557771628465515 0,0,0 -174.265625 0 l 0,67.55777162846552 a 87.1328125,14.557771628465515 0,0,0 174.265625 0 l 0,-67.55777162846552" style=""/><g transform="translate(-79.6328125, -19)" style="" class="label"><rect/><foreignObject height="38" width="159.265625"><div style="display: inline-block; white-space: nowrap;" xmlns="http://www.w3.org/1999/xhtml"><span class="nodeLabel">TursoDB cloud DB<br /><i>required state store</i></span></div></foreignObject></g></g><g transform="translate(124.2109375, 822.5)" data-id="CHQ" data-node="true" id="flowchart-CHQ-15" class="node default default flowchart-label"><path transform="translate(-89.2109375,-48.55121272980072)" d="M 0,14.700808486533807 a 89.2109375,14.700808486533807 0,0,0 178.421875 0 a 89.2109375,14.700808486533807 0,0,0 -178.421875 0 l 0,67.70080848653382 a 89.2109375,14.700808486533807 0,0,0 178.421875 0 l 0,-67.70080848653382" style=""/><g transform="translate(-81.7109375, -19)" style="" class="label"><rect/><foreignObject height="38" width="163.421875"><div style="display: inline-block; white-space: nowrap;" xmlns="http://www.w3.org/1999/xhtml"><span class="nodeLabel">Channel queue rows<br /><i>Turso inbox / outbox</i></span></div></foreignObject></g></g><g transform="translate(412.72265625, 1054.3366584777832)" data-id="FS" data-node="true" id="flowchart-FS-16" class="node default default flowchart-label"><rect height="72" width="134.78125" y="-36" x="-67.390625" ry="0" rx="0" style="" class="basic label-container"/><g transform="translate(-59.890625, -28.5)" style="" class="label"><rect/><foreignObject height="57" width="119.78125"><div style="display: inline-block; white-space: nowrap;" xmlns="http://www.w3.org/1999/xhtml"><span class="nodeLabel">Filesystem<br />~/.typhoon/bin<br />.history/</span></div></foreignObject></g></g><g transform="translate(714.88671875, 822.5)" data-id="OLLM" data-node="true" id="flowchart-OLLM-12" class="node default default flowchart-label"><rect height="53" width="289.546875" y="-26.5" x="-144.7734375" ry="0" rx="0" style="" class="basic label-container"/><g transform="translate(-137.2734375, -19)" style="" class="label"><rect/><foreignObject height="38" width="274.546875"><div style="display: inline-block; white-space: nowrap;" xmlns="http://www.w3.org/1999/xhtml"><span class="nodeLabel">Frontier LLM<br /><i>queued gateway-worker path only</i></span></div></foreignObject></g></g><g transform="translate(966.66015625, 822.5)" data-id="DLLM" data-node="true" id="flowchart-DLLM-13" class="node default default flowchart-label"><rect height="53" width="114" y="-26.5" x="-57" ry="0" rx="0" style="" class="basic label-container"/><g transform="translate(-49.5, -19)" style="" class="label"><rect/><foreignObject height="38" width="99"><div style="display: inline-block; white-space: nowrap;" xmlns="http://www.w3.org/1999/xhtml"><span class="nodeLabel">Dream LLM<br />cheap batch</span></div></foreignObject></g></g><g transform="translate(2508.625, 433.5)" data-id="CRON" data-node="true" id="flowchart-CRON-8" class="node default default flowchart-label"><rect height="91" width="235.71875" y="-45.5" x="-117.859375" ry="0" rx="0" style="" class="basic label-container"/><g transform="translate(-110.359375, -38)" style="" class="label"><rect/><foreignObject height="76" width="220.71875"><div style="display: inline-block; white-space: nowrap;" xmlns="http://www.w3.org/1999/xhtml"><span class="nodeLabel"><b>typhoon cron</b><br />general scheduler<br /><i>use targets via core;<br />management targets direct</i></span></div></foreignObject></g></g><g transform="translate(3586.73828125, 822.5)" data-id="TOOLMGR" data-node="true" id="flowchart-TOOLMGR-9" class="node default default flowchart-label"><rect height="129" width="313.609375" y="-64.5" x="-156.8046875" ry="0" rx="0" style="" class="basic label-container"/><g transform="translate(-149.3046875, -57)" style="" class="label"><rect/><foreignObject height="114" width="298.609375"><div style="display: inline-block; white-space: nowrap;" xmlns="http://www.w3.org/1999/xhtml"><span class="nodeLabel"><b>typhoon tool — tool manager</b><br /><b>ingest:</b> propose list / show / submit /<br />approve / reject<br /><b>operate:</b> list / show / diff / history /<br />disable / enable / rollback /<br />delete / purge / promote / sync</span></div></foreignObject></g></g><g transform="translate(3125.33984375, 618.5)" data-id="DREAM" data-node="true" id="flowchart-DREAM-10" class="node default default flowchart-label"><rect height="91" width="374.890625" y="-45.5" x="-187.4453125" ry="0" rx="0" style="" class="basic label-container"/><g transform="translate(-179.9453125, -38)" style="" class="label"><rect/><foreignObject height="76" width="359.890625"><div style="display: inline-block; white-space: nowrap;" xmlns="http://www.w3.org/1999/xhtml"><span class="nodeLabel"><b>typhoon dream</b><br /><i>standalone batch; lease row in dream_runs.<br />Reads signals, writes proposals + memories.<br />status / cancel via dream_runs</i></span></div></foreignObject></g></g><g transform="translate(2868.1796875, 208)" data-id="HEALTH" data-node="true" id="flowchart-HEALTH-11" class="node default default flowchart-label"><rect height="72" width="186.78125" y="-36" x="-93.390625" ry="0" rx="0" style="" class="basic label-container"/><g transform="translate(-85.890625, -28.5)" style="" class="label"><rect/><foreignObject height="57" width="171.78125"><div style="display: inline-block; white-space: nowrap;" xmlns="http://www.w3.org/1999/xhtml"><span class="nodeLabel"><b>typhoon health</b><br /><i>reports gateway/cron<br />daemon liveness</i></span></div></foreignObject></g></g><g transform="translate(1850.84765625, 618.5)" data-id="CORE" data-node="true" id="flowchart-CORE-6" class="node default default flowchart-label"><polygon style="" transform="translate(-137.28125,45.5)" class="label-container" points="22.75,0 251.8125,0 274.5625,-45.5 251.8125,-91 22.75,-91 0,-45.5"/><g transform="translate(-107.03125, -38)" style="" class="label"><rect/><foreignObject height="76" width="214.0625"><div style="display: inline-block; white-space: nowrap;" xmlns="http://www.w3.org/1999/xhtml"><span class="nodeLabel"><b>Typhoon core</b><br />dispatcher<br /><i>master path for every use;<br />sole driver of the recorder</i></span></div></foreignObject></g></g><g transform="translate(1875.00390625, 822.5)" data-id="REC" data-node="true" id="flowchart-REC-7" class="node default default flowchart-label"><polygon style="" transform="translate(-127.7578125,36)" class="label-container" points="-24,0 243.515625,0 279.515625,-72 12,-72"/><g transform="translate(-120.2578125, -28.5)" style="" class="label"><rect/><foreignObject height="57" width="240.515625"><div style="display: inline-block; white-space: nowrap;" xmlns="http://www.w3.org/1999/xhtml"><span class="nodeLabel"><b>Signal recorder</b><br /><i>sole writer to the signal store;<br />driven only by core</i></span></div></foreignObject></g></g><g transform="translate(1248.78515625, 433.5)" data-id="EDGE" data-node="true" id="flowchart-EDGE-4" class="node default default flowchart-label"><rect height="72" width="190.25" y="-36" x="-95.125" ry="0" rx="0" style="" class="basic label-container"/><g transform="translate(-87.625, -28.5)" style="" class="label"><rect/><foreignObject height="57" width="175.25"><div style="display: inline-block; white-space: nowrap;" xmlns="http://www.w3.org/1999/xhtml"><span class="nodeLabel"><b>gateway edge loop</b><br />Telegram-facing<br /><i>adapter + queue only</i></span></div></foreignObject></g></g><g transform="translate(1524.55078125, 433.5)" data-id="WORKER" data-node="true" id="flowchart-WORKER-5" class="node default default flowchart-label"><rect height="72" width="261.28125" y="-36" x="-130.640625" ry="0" rx="0" style="" class="basic label-container"/><g transform="translate(-123.140625, -28.5)" style="" class="label"><rect/><foreignObject height="57" width="246.28125"><div style="display: inline-block; white-space: nowrap;" xmlns="http://www.w3.org/1999/xhtml"><span class="nodeLabel"><b>gateway worker loop</b><br />Typhoon Way agent loop<br /><i>queue consumer; invokes core</i></span></div></foreignObject></g></g><g transform="translate(363.6875, 208)" data-id="TG" data-node="true" id="flowchart-TG-2" class="node default default flowchart-label"><rect height="34" width="119.625" y="-17" x="-59.8125" ry="0" rx="0" style="" class="basic label-container"/><g transform="translate(-52.3125, -9.5)" style="" class="label"><rect/><foreignObject height="19" width="104.625"><div style="display: inline-block; white-space: nowrap;" xmlns="http://www.w3.org/1999/xhtml"><span class="nodeLabel">Telegram bot</span></div></foreignObject></g></g><g transform="translate(593.3515625, 208)" data-id="EXT" data-node="true" id="flowchart-EXT-3" class="node default default flowchart-label"><rect height="72" width="239.703125" y="-36" x="-119.8515625" ry="0" rx="0" style="" class="basic label-container"/><g transform="translate(-112.3515625, -28.5)" style="" class="label"><rect/><foreignObject height="57" width="224.703125"><div style="display: inline-block; white-space: nowrap;" xmlns="http://www.w3.org/1999/xhtml"><span class="nodeLabel">External agent CLI<br />Claude Code, Cursor, Codex<br /><i>operator only in v0.1</i></span></div></foreignObject></g></g><g transform="translate(3223.47265625, 26.5)" data-id="OP" data-node="true" id="flowchart-OP-0" class="node default default flowchart-label"><rect height="34" width="95.125" y="-17" x="-47.5625" ry="17" rx="17" style=""/><g transform="translate(-35.8125, -9.5)" style="" class="label"><rect/><foreignObject height="19" width="71.625"><div style="display: inline-block; white-space: nowrap;" xmlns="http://www.w3.org/1999/xhtml"><span class="nodeLabel">Operator</span></div></foreignObject></g></g><g transform="translate(420.87109375, 26.5)" data-id="USERS" data-node="true" id="flowchart-USERS-1" class="node default default flowchart-label"><rect height="53" width="185.09375" y="-26.5" x="-92.546875" ry="26.5" rx="26.5" style=""/><g transform="translate(-78.421875, -19)" style="" class="label"><rect/><foreignObject height="38" width="156.84375"><div style="display: inline-block; white-space: nowrap;" xmlns="http://www.w3.org/1999/xhtml"><span class="nodeLabel">Users<br /><i>via channel binding</i></span></div></foreignObject></g></g><g transform="translate(4245.21875, 208)" data-id="FORGE" data-node="true" id="flowchart-FORGE-17" class="node default default flowchart-label"><rect height="72" width="153.140625" y="-36" x="-76.5703125" ry="0" rx="0" style="" class="basic label-container"/><g transform="translate(-69.0703125, -28.5)" style="" class="label"><rect/><foreignObject height="57" width="138.140625"><div style="display: inline-block; white-space: nowrap;" xmlns="http://www.w3.org/1999/xhtml"><span class="nodeLabel">Forge workflow<br />manual v0.1;<br />CLI-assisted later</span></div></foreignObject></g></g></g></g></g></svg>